<?xml version="1.0" standalone="no"?>
<!DOCTYPE svg PUBLIC "-//W3C//DTD SVG 20010904//EN"
 "http://www.w3.org/TR/2001/REC-SVG-20010904/DTD/svg10.dtd">
<svg version="1.0" xmlns="http://www.w3.org/2000/svg"
 width="512.000000pt" height="768.000000pt" viewBox="0 0 512.000000 768.000000"
 preserveAspectRatio="xMidYMid meet">

<g transform="translate(0.000000,768.000000) scale(0.100000,-0.100000)"
fill="#000000" stroke="none">
<path d="M951 5641 c-53 -19 -71 -33 -71 -59 0 -20 96 -118 186 -188 l80 -63
12 -167 c6 -92 10 -170 7 -172 -2 -3 -80 -7 -172 -10 -105 -3 -159 -8 -145
-13 12 -5 25 -15 28 -23 3 -8 21 -24 39 -35 18 -10 67 -47 109 -81 l76 -63
-33 -39 c-17 -22 -39 -49 -47 -61 -13 -20 -12 -20 13 2 14 13 37 39 49 57 13
19 26 34 30 34 13 0 35 -53 63 -153 31 -110 72 -183 111 -198 57 -21 124 28
124 91 0 11 2 20 4 20 2 0 41 -16 86 -35 45 -19 141 -53 213 -76 91 -29 141
-50 162 -69 38 -35 131 -68 310 -110 173 -40 175 -41 155 -47 -8 -3 -25 -17
-37 -31 -13 -15 -23 -22 -23 -15 0 20 -65 53 -104 53 -48 0 -72 -13 -91 -50
-19 -37 -19 -71 0 -116 17 -41 71 -69 116 -59 31 7 79 57 79 83 0 11 8 5 20
-16 24 -40 75 -72 114 -72 22 0 41 12 74 46 40 42 46 45 68 35 20 -9 26 -7 36
9 12 18 24 20 120 20 118 0 81 11 428 -132 465 -192 1058 -398 1146 -398 20 0
44 10 64 26 38 32 32 43 -10 18 l-31 -19 -77 43 c-42 24 -247 127 -454 230
-207 103 -377 191 -377 196 -1 4 276 6 614 5 338 -2 615 -3 615 -2 0 2 -61 32
-135 67 -74 35 -228 113 -342 172 -114 60 -250 128 -301 152 -94 44 -184 64
-196 44 -6 -11 2 -14 64 -28 32 -8 29 -9 -33 -14 -39 -4 -72 -12 -77 -20 -4
-7 -9 -8 -11 -2 -2 5 -33 12 -69 16 -40 4 -57 3 -45 -3 11 -5 25 -6 30 -3 6 3
5 0 -1 -7 -8 -8 -18 -8 -43 0 -18 6 -28 15 -23 18 6 4 -7 6 -28 6 -21 0 -38 0
-37 -1 1 -1 32 -14 70 -28 37 -14 86 -38 110 -54 55 -39 139 -113 133 -119 -4
-4 -193 44 -208 54 -5 2 1 22 13 45 11 22 16 38 11 35 -4 -4 -16 -24 -26 -45
l-18 -39 -51 14 c-29 8 -82 24 -120 34 l-68 20 5 52 5 52 -10 -52 -10 -51 -74
25 c-41 13 -127 37 -192 52 -64 15 -118 32 -120 37 -2 5 124 10 305 12 169 1
331 7 361 12 30 6 56 10 57 10 1 0 9 11 18 25 16 25 16 25 -2 14 -16 -10 -28
-7 -73 19 -46 26 -665 322 -675 322 -5 0 -464 215 -649 305 -651 315 -868 404
-1074 439 -52 9 -97 19 -100 22 -3 3 32 3 79 -1 221 -19 479 -117 1187 -451
158 -75 434 -205 613 -289 472 -222 637 -301 673 -326 32 -21 32 -21 -3 10
-33 28 -33 30 -12 31 47 0 111 47 257 189 219 214 325 311 359 332 20 12 48
18 76 17 33 -1 37 -2 16 -5 -23 -4 -26 -7 -15 -14 10 -8 8 -9 -8 -4 -15 4 -28
0 -40 -14 -10 -12 -21 -21 -26 -21 -11 0 -87 -61 -84 -69 0 -3 -5 -17 -12 -30
-12 -22 -12 -23 5 -17 14 5 16 4 7 -4 -8 -9 -16 -9 -30 -1 -10 6 -13 11 -8 11
6 0 16 10 24 23 11 17 7 16 -18 -7 -34 -32 -37 -37 -20 -34 6 2 14 -3 16 -10
4 -10 -3 -13 -23 -10 -15 2 -29 -2 -31 -9 -3 -8 5 -13 19 -14 13 0 17 -3 10
-6 -6 -2 -9 -10 -6 -15 5 -7 2 -8 -7 -2 -21 12 -49 15 -49 5 0 -6 5 -13 12
-17 7 -5 8 -3 3 7 -8 12 -6 12 8 0 9 -7 17 -14 17 -16 0 -6 -37 -1 -46 6 -15
12 -48 -26 -38 -42 5 -9 2 -10 -8 -6 -23 8 -52 -25 -36 -41 15 -15 42 -16 33
-2 -4 6 -12 7 -18 3 -7 -4 -6 0 2 10 17 21 35 22 27 1 -4 -11 1 -18 14 -21 11
-3 20 -9 20 -14 0 -12 -32 -49 -43 -49 -5 0 -1 7 8 16 22 22 8 35 -41 37 -29
1 -46 -5 -62 -21 -12 -12 -18 -22 -14 -22 4 0 13 5 20 12 9 9 12 9 12 0 0 -7
-7 -15 -15 -18 -8 -4 -12 -10 -9 -15 3 -5 0 -9 -5 -9 -6 0 -11 5 -11 12 0 6
-3 8 -6 5 -4 -4 -1 -14 7 -24 12 -15 12 -16 -3 -10 -10 3 -20 1 -24 -5 -4 -6
-3 -9 2 -6 5 3 16 -1 24 -10 13 -14 12 -15 -4 -9 -14 5 -17 3 -12 -8 3 -8 3
-22 0 -30 -5 -12 -10 -12 -27 -4 -18 10 -20 9 -9 -2 18 -20 15 -32 -8 -26 -11
3 -20 2 -20 -2 0 -13 22 -29 35 -25 12 5 42 -23 33 -31 -3 -3 -13 -2 -22 1
-14 5 -15 9 -4 16 9 6 6 7 -8 3 -13 -3 -28 0 -37 9 -8 8 -17 13 -20 10 -3 -3
-15 -1 -26 6 -14 7 -21 7 -21 0 0 -5 5 -10 11 -10 15 0 333 -155 434 -212 l80
-45 62 176 c35 97 97 277 139 400 88 257 90 238 -25 266 -81 20 -140 22 -171
5 -27 -15 -178 -153 -375 -344 -158 -154 -219 -193 -282 -181 -21 3 -126 48
-233 100 -107 51 -274 130 -370 175 -96 46 -227 107 -290 137 -642 306 -1001
467 -1188 534 -202 71 -376 93 -471 60z m346 -419 c65 -48 159 -116 209 -150
94 -64 148 -112 110 -99 -10 4 -101 10 -203 14 -175 6 -184 7 -188 27 -2 12
-12 71 -20 131 -9 61 -20 122 -25 138 -5 15 -7 27 -5 27 2 0 57 -40 122 -88z
m3040 -88 c-3 -3 -12 -4 -19 -1 -8 3 -5 6 6 6 11 1 17 -2 13 -5z m-183 -85
c-2 -3 -15 -6 -30 -6 -17 0 -22 2 -13 7 15 10 49 9 43 -1z m-2597 -101 c10 -9
39 -19 65 -22 26 -4 50 -11 53 -16 3 -5 12 -7 20 -4 9 4 35 -15 67 -46 29 -29
48 -49 41 -46 -6 4 -14 2 -18 -4 -3 -6 3 -10 15 -10 12 0 33 -8 46 -19 l24
-19 -31 -6 c-17 -3 -58 1 -90 9 -32 9 -103 20 -158 25 -55 5 -146 17 -203 25
-269 42 -358 64 -453 114 l-50 26 105 6 c58 4 205 5 327 4 184 -2 226 -5 240
-17z m2378 -77 c-3 -6 -11 -11 -16 -11 -5 0 -4 6 3 14 14 16 24 13 13 -3z
m271 -58 c-14 -26 -25 -45 -26 -41 0 12 43 98 48 94 2 -2 -8 -26 -22 -53z
m-316 23 c0 -2 -8 -10 -17 -17 -16 -13 -17 -12 -4 4 13 16 21 21 21 13z m283
-38 c-4 -7 -8 -17 -9 -23 -1 -5 -6 -19 -10 -29 -6 -15 -4 -17 6 -11 8 5 -8
-32 -34 -81 -53 -98 -83 -140 -42 -57 29 57 31 67 16 58 -7 -4 -8 3 -4 22 7
26 6 27 -12 13 -17 -14 -18 -14 -6 2 8 10 20 14 29 11 12 -5 14 -3 8 7 -5 9
-4 11 3 6 9 -5 9 -13 1 -27 -6 -12 -8 -23 -6 -26 3 -3 13 9 21 26 18 34 20 45
7 37 -5 -3 -12 1 -15 10 -3 8 -2 12 4 9 5 -3 14 4 20 15 6 11 8 20 4 20 -3 0
-1 7 6 15 15 18 24 20 13 3z m-323 -29 c-11 -7 -6 -8 19 -4 23 5 31 4 27 -4
-9 -13 -63 -15 -70 -2 -6 9 8 19 29 20 6 0 3 -4 -5 -10z m-2470 -3 c0 -3 -4
-8 -10 -11 -5 -3 -10 -1 -10 4 0 6 5 11 10 11 6 0 10 -2 10 -4z m55 -16 c19
-8 19 -9 -2 -9 -12 -1 -25 4 -28 9 -7 12 2 12 30 0z m52 -16 c-3 -3 -12 -4
-19 -1 -8 3 -5 6 6 6 11 1 17 -2 13 -5z m338 -23 c17 -33 10 -43 -21 -31 -18
7 -24 31 -15 58 4 11 23 -3 36 -27z m-245 -8 c30 -11 31 -12 6 -8 -16 4 -43
13 -60 20 -23 11 -25 13 -6 8 14 -3 41 -12 60 -20z m-135 -115 c33 -20 83 -47
112 -62 54 -27 286 -96 323 -96 l21 0 -22 -29 -21 -29 -157 53 c-174 59 -271
100 -342 146 -48 30 -61 53 -52 89 5 19 7 19 42 -8 20 -16 63 -45 96 -64z
m357 47 c29 -7 44 -13 33 -14 -33 -2 -92 18 -117 40 l-23 20 27 -16 c15 -10
51 -23 80 -30z m18 19 l35 -14 -35 6 c-19 4 -44 10 -55 15 l-20 8 20 0 c11 0
36 -7 55 -15z m1980 -8 c0 -3 -4 -8 -10 -11 -5 -3 -10 -1 -10 4 0 6 5 11 10
11 6 0 10 -2 10 -4z m280 -26 c0 -5 -2 -10 -4 -10 -3 0 -8 5 -11 10 -3 6 -1
10 4 10 6 0 11 -4 11 -10z m-133 -26 c-3 -3 -12 -4 -19 -1 -8 3 -5 6 6 6 11 1
17 -2 13 -5z m-137 -58 c0 -2 -7 -7 -16 -10 -8 -3 -12 -2 -9 4 6 10 25 14 25
6z m240 -16 c-6 -11 -13 -20 -16 -20 -2 0 0 9 6 20 6 11 13 20 16 20 2 0 0 -9
-6 -20z m-165 -40 c3 -6 -1 -7 -9 -4 -18 7 -21 14 -7 14 6 0 13 -4 16 -10z
m130 -19 c-17 -34 -38 -52 -28 -24 6 16 5 17 -12 3 -18 -15 -18 -14 -1 13 21
31 28 35 20 10 -4 -13 0 -11 12 5 23 31 27 28 9 -7z m-72 -5 c4 -10 1 -13 -8
-9 -8 3 -12 9 -9 14 7 12 11 11 17 -5z m-996 -37 c43 -11 103 -29 133 -39 30
-10 72 -21 93 -25 20 -3 37 -11 37 -17 0 -5 -6 -8 -12 -5 -19 7 -311 89 -325
91 -17 3 -29 16 -15 16 7 0 47 -9 89 -21z m-942 -39 c28 -28 74 -67 103 -87
28 -20 52 -37 52 -38 0 -4 -88 14 -133 26 -53 14 -129 53 -147 74 -13 15 -11
21 18 46 18 16 38 29 45 29 7 0 35 -23 62 -50z m955 6 c41 -14 68 -25 59 -25
-9 -1 -36 6 -59 14 -60 21 -67 19 -39 -12 24 -27 24 -28 1 -8 -21 17 -48 55
-40 55 2 0 37 -11 78 -24z m616 4 c13 0 24 -4 24 -10 0 -16 -43 -11 -65 7 -18
14 -18 15 -2 9 10 -3 30 -6 43 -6z m-509 -36 c-3 -3 -12 -4 -19 -1 -8 3 -5 6
6 6 11 1 17 -2 13 -5z m63 -29 c0 -8 -2 -15 -4 -15 -2 0 -6 7 -10 15 -3 8 -1
15 4 15 6 0 10 -7 10 -15z m185 -11 c33 -8 121 -31 195 -50 74 -19 137 -38
140 -41 3 -3 -6 -3 -20 0 -14 4 -112 28 -217 54 -106 26 -193 51 -193 56 0 4
8 6 18 3 10 -3 44 -13 77 -22z m-116 0 c12 -12 -8 -10 -34 2 l-30 14 30 -6
c16 -3 32 -8 34 -10z m48 -10 c-3 -3 -12 -4 -19 -1 -8 3 -5 6 6 6 11 1 17 -2
13 -5z m-217 -30 c0 -8 -19 -13 -24 -6 -3 5 1 9 9 9 8 0 15 -2 15 -3z m-370
-55 c-19 -16 -63 -47 -97 -70 -56 -37 -67 -40 -103 -34 -22 4 -42 10 -45 15
-7 12 44 59 90 82 38 20 175 50 185 41 3 -3 -11 -18 -30 -34z m381 14 c13 -16
12 -17 -3 -4 -17 13 -22 21 -14 21 2 0 10 -8 17 -17z m646 -19 c-3 -3 -12 -4
-19 -1 -8 3 -5 6 6 6 11 1 17 -2 13 -5z m38 -4 c3 -5 1 -10 -4 -10 -6 0 -11 5
-11 10 0 6 2 10 4 10 3 0 8 -4 11 -10z m-574 -97 c27 -14 49 -30 49 -35 0 -5
-26 -8 -57 -6 -57 3 -57 3 -59 36 -2 39 5 39 67 5z m236 -98 c122 -51 892
-440 912 -461 42 -44 -546 195 -947 384 -103 49 -198 93 -212 97 -24 8 -24 8
-5 16 41 18 165 -1 252 -36z"/>
<path d="M1684 4883 c-8 -12 -24 -18 -57 -18 -50 0 -59 -8 -28 -25 34 -18 68
-12 90 16 12 15 21 31 21 35 0 15 -14 10 -26 -8z"/>
<path d="M3733 4660 c-1 -11 2 -18 7 -15 4 3 11 -1 13 -7 3 -7 6 -8 6 -2 1 5
-5 18 -12 28 -12 16 -13 16 -14 -4z"/>
<path d="M3278 4463 c7 -3 16 -2 19 1 4 3 -2 6 -13 5 -11 0 -14 -3 -6 -6z"/>
<path d="M3318 4453 c7 -3 16 -2 19 1 4 3 -2 6 -13 5 -11 0 -14 -3 -6 -6z"/>
<path d="M2630 2810 c-198 -11 -425 -36 -498 -55 -30 -7 -71 -26 -93 -41 -49
-33 -199 -159 -304 -254 -52 -46 -104 -82 -148 -102 -75 -34 -82 -45 -17 -28
84 23 310 34 673 35 204 0 367 4 367 9 0 18 379 -1 546 -28 198 -31 231 -33
246 -17 18 17 14 301 -4 356 -26 80 -102 95 -468 95 -293 0 -670 -24 -838 -55
-15 -3 -7 2 18 10 59 20 246 41 495 56 276 16 859 7 975 -15 105 -21 296 -71
347 -93 21 -8 49 -19 62 -24 13 -5 22 -12 19 -14 -2 -2 -32 7 -67 21 -34 14
-67 24 -73 22 -7 -3 16 -15 51 -27 34 -13 73 -32 86 -43 25 -20 35 -12 13 10
-19 19 -2 14 50 -12 69 -36 133 -82 126 -89 -4 -4 -2 -12 4 -20 6 -7 24 -47
39 -87 l29 -75 39 -2 c39 -1 39 -1 7 5 -30 6 -36 14 -62 76 -17 38 -34 74 -40
80 -5 5 -10 14 -10 19 0 16 73 -43 145 -119 66 -69 74 -74 139 -89 197 -45
337 -193 381 -400 18 -87 20 -214 3 -197 -6 6 -13 28 -15 49 -5 48 -39 154
-68 213 -31 61 -71 97 -141 125 -52 21 -60 28 -72 65 -20 60 -66 91 -128 87
-27 -2 -58 -9 -69 -16 -56 -36 -79 -115 -51 -172 19 -38 17 -42 -18 -33 -17 4
-34 20 -46 45 -11 20 -24 40 -29 44 -6 3 1 -14 14 -37 14 -24 25 -45 25 -48 0
-3 -27 -3 -60 0 -33 3 -64 3 -68 0 -7 -7 -463 22 -569 35 -45 5 -53 10 -54 28
-1 19 -2 19 -6 3 -4 -16 -11 -18 -51 -12 -26 3 -94 8 -152 12 -93 5 -116 10
-196 45 -108 46 -164 56 -233 39 -68 -16 -143 -73 -136 -103 5 -20 -5 -26 -82
-60 -56 -24 -130 -68 -203 -122 -180 -133 -375 -221 -545 -244 -85 -12 -252
-14 -333 -4 l-53 6 63 66 63 66 -72 -69 -72 -69 -493 22 c-476 22 -688 35
-736 46 -19 5 -23 11 -20 38 3 28 7 32 38 37 32 6 142 69 155 90 3 4 24 6 47
5 24 -1 28 0 11 2 -18 2 -33 8 -33 12 0 4 42 35 93 68 50 33 105 73 120 89 16
15 34 29 40 30 7 1 48 23 92 49 44 26 100 56 125 67 87 38 108 82 44 94 -78
14 -164 -34 -206 -116 -39 -77 -49 -93 -54 -87 -2 2 5 24 16 48 25 56 25 81
-1 110 l-21 24 16 -25 c9 -13 16 -36 15 -50 -1 -23 -2 -22 -10 6 -11 38 -52
68 -86 61 -42 -8 -11 10 54 32 121 41 235 54 398 47 83 -4 195 -15 250 -24
l100 -18 -88 -23 c-49 -13 -86 -25 -84 -27 2 -2 53 9 113 25 l109 28 -55 11
c-173 35 -277 44 -434 39 -179 -5 -275 -24 -383 -78 -70 -34 -163 -103 -163
-121 0 -7 15 1 32 18 l33 29 -29 -32 c-16 -18 -32 -30 -36 -28 -16 10 -111
-110 -104 -130 3 -7 0 -16 -7 -21 -8 -5 -10 -3 -4 7 5 8 4 11 0 6 -5 -4 -10
-15 -11 -25 -1 -9 -5 -25 -9 -36 -7 -16 -5 -17 12 -8 11 6 42 14 70 18 73 9
76 13 63 66 -6 24 -10 60 -7 79 4 33 4 32 5 -7 1 -23 7 -55 13 -71 8 -25 15
-30 31 -25 21 5 21 5 1 13 -22 8 -35 53 -28 101 4 35 14 50 27 42 7 -5 8 -2 3
6 -6 10 -4 12 7 7 10 -3 15 0 14 11 0 10 5 16 14 14 8 -2 12 0 8 4 -14 14 30
34 87 39 l56 5 15 -35 c26 -64 -19 -131 -142 -211 -89 -57 -105 -64 -83 -37
11 13 8 13 -12 -2 -15 -11 -23 -23 -18 -26 22 -14 -144 -129 -187 -129 -21 0
-14 31 26 118 16 34 27 62 24 62 -12 0 -83 -169 -94 -223 -12 -61 -3 -113 25
-141 11 -11 12 -20 3 -44 -10 -25 -9 -35 6 -56 9 -15 28 -32 42 -38 28 -13 31
-50 9 -113 -23 -62 -19 -90 15 -119 17 -14 47 -28 68 -32 39 -7 52 -18 52 -46
0 -43 45 -132 92 -183 41 -45 46 -55 30 -55 -39 0 -149 -40 -168 -61 -19 -21
-19 -21 7 -43 68 -59 286 -81 1069 -107 874 -30 2867 46 3223 122 86 19 72 55
-34 87 l-57 16 38 37 c72 70 129 245 130 397 0 61 5 82 31 135 59 117 66 149
58 282 -11 178 -60 299 -162 396 -64 61 -145 104 -233 124 -65 16 -72 20 -169
113 -112 108 -254 201 -384 251 -103 40 -284 87 -406 107 -121 19 -655 27
-905 14z m577 -62 c7 -6 24 -7 39 -4 14 4 32 2 40 -4 7 -7 17 -9 22 -6 11 7
72 -22 72 -33 0 -5 -21 -17 -47 -27 -48 -18 -85 -20 -91 -3 -7 17 -22 9 -22
-12 0 -11 4 -18 8 -15 5 3 9 -1 9 -8 0 -7 -10 -19 -21 -26 -19 -12 -20 -11 -8
3 8 9 9 18 3 21 -5 3 -14 -8 -20 -24 -5 -17 -12 -30 -15 -30 -3 0 -3 7 1 16 5
14 2 14 -23 -2 -16 -10 -35 -24 -42 -31 -7 -7 -17 -13 -21 -13 -14 0 -196
-141 -194 -150 2 -5 -14 -6 -35 -4 -95 13 -104 15 -98 29 9 24 -14 87 -35 92
-10 3 -19 10 -19 17 0 7 -4 6 -9 -2 -4 -8 -11 -13 -15 -13 -42 6 -55 -2 -84
-49 l-31 -50 -184 0 c-101 0 -246 -3 -322 -7 -133 -6 -138 -6 -132 13 6 17 6
17 -5 3 -10 -12 -33 -16 -93 -17 -45 0 -99 -8 -124 -16 l-43 -16 68 63 c117
108 187 167 251 214 73 52 132 65 362 84 349 28 828 32 858 7z m-554 -252 c4
-11 1 -13 -10 -9 -13 5 -15 2 -11 -15 4 -15 1 -20 -12 -19 -16 1 -16 3 -1 29
18 31 26 35 34 14z m71 -27 c4 -23 5 -44 2 -46 -2 -2 -22 -3 -45 -1 l-41 3 15
29 c9 16 14 35 11 41 -2 6 8 12 24 13 25 2 28 -2 34 -39z m-94 -40 c0 -5 -9
-9 -20 -9 -11 0 -20 4 -20 8 0 4 9 8 20 9 11 1 20 -2 20 -8z m-97 -46 c-7 -2
-21 -2 -30 0 -10 3 -4 5 12 5 17 0 24 -2 18 -5z m2004 -168 c8 -9 13 -18 11
-21 -3 -2 -13 5 -23 16 -21 23 -11 27 12 5z m-4109 -131 c-31 -44 -60 -73 -43
-43 14 24 66 89 71 89 3 0 -10 -21 -28 -46z m4260 -8 c33 -17 68 -54 59 -63
-4 -3 -7 -1 -7 5 0 7 -7 12 -15 12 -8 0 -15 6 -15 13 0 7 -15 21 -32 30 -18 8
-29 16 -25 16 4 1 20 -5 35 -13z m-458 -76 l25 -8 -25 0 c-14 0 -36 4 -50 8
l-25 8 25 0 c14 0 36 -4 50 -8z m37 -132 c-3 -8 -6 -5 -6 6 -1 11 2 17 5 13 3
-3 4 -12 1 -19z m-1224 -72 c143 -61 214 -315 166 -594 -6 -34 -16 -65 -21
-68 -6 -4 -8 1 -4 12 29 92 33 291 9 399 -29 131 -95 220 -182 246 -111 33
-231 -77 -267 -245 -17 -77 -18 -210 -2 -295 11 -61 13 -63 18 -31 4 25 10 35
23 34 11 -1 16 4 15 14 -5 24 42 23 51 -1 7 -19 8 -19 15 -2 4 10 2 21 -4 25
-6 4 -10 11 -9 16 10 54 -17 84 -41 47 -9 -15 -10 -14 -4 7 8 27 8 37 0 89 -6
32 -5 33 8 15 12 -16 15 -17 21 -4 3 9 1 34 -4 55 -5 22 -9 30 -10 19 -1 -15
-9 -23 -26 -26 -13 -3 -27 -3 -30 0 -9 9 -5 53 4 48 5 -3 7 -16 3 -28 -3 -14
-2 -19 6 -14 7 4 12 15 12 25 0 10 7 24 15 31 9 7 14 19 11 27 -8 19 -2 16 20
-9 10 -12 13 -18 7 -14 -9 5 -11 2 -7 -8 8 -22 17 -14 40 33 10 23 23 41 28
41 4 0 1 -12 -9 -26 -9 -14 -14 -28 -11 -31 3 -3 1 -14 -5 -24 -5 -11 -6 -19
-1 -19 9 0 32 44 32 61 0 6 9 22 20 36 27 35 25 21 -6 -45 -25 -53 -25 -57
-10 -89 14 -30 26 -38 49 -34 5 1 6 -3 3 -8 -4 -5 -2 -12 4 -16 5 -3 10 -1 10
5 0 6 5 8 10 5 8 -5 7 -11 -1 -21 -6 -8 -7 -14 -2 -14 5 0 19 19 31 43 19 37
21 38 16 12 -4 -23 -3 -26 5 -15 9 12 11 9 12 -15 1 -16 2 -36 2 -42 -1 -7 3
-13 8 -13 18 0 9 109 -15 181 -13 41 -22 78 -18 84 3 5 2 7 -3 3 -4 -4 -25 8
-47 27 -40 37 -70 43 -112 24 -45 -21 -104 -129 -66 -121 8 2 11 0 7 -4 -14
-14 -37 -12 -37 3 0 47 82 157 110 148 10 -3 21 -1 25 4 4 7 -1 8 -11 4 -11
-4 -15 -2 -11 4 4 6 27 16 52 22 133 33 225 -73 245 -283 8 -94 7 -119 -10
-196 -27 -126 -70 -203 -146 -260 -75 -57 -129 -48 -199 32 -40 45 -39 35 2
-20 29 -39 71 -62 114 -62 67 0 173 96 214 194 8 19 21 71 29 113 13 69 14 73
15 33 4 -189 -153 -390 -284 -366 -97 19 -187 202 -201 411 -13 194 65 381
180 431 40 17 108 18 149 0z m1588 -39 c71 -48 112 -180 113 -372 1 -88 -4
-124 -22 -182 -12 -40 -27 -75 -32 -78 -5 -3 0 20 10 51 11 32 20 67 19 78 0
12 -8 -4 -18 -34 -25 -77 -38 -98 -74 -120 -43 -26 -69 -25 -105 5 -54 45 -64
82 -68 251 -5 160 8 239 44 274 14 13 15 13 5 0 -7 -9 -14 -28 -17 -43 -2 -15
-7 -31 -11 -37 -3 -5 -1 -10 5 -10 7 0 9 -8 4 -22 -6 -22 -6 -22 19 -5 24 15
26 15 20 1 -4 -11 2 -23 16 -33 30 -23 37 -102 17 -210 -15 -82 -28 -106 -53
-96 -7 2 -13 0 -13 -5 0 -16 18 -20 43 -11 32 12 43 50 51 166 8 108 10 122
19 131 7 7 11 -11 8 -29 -1 -5 3 -6 9 -2 7 4 4 17 -8 38 -11 18 -22 59 -26 92
-9 89 -24 136 -47 142 -10 3 -19 10 -19 16 0 22 -21 -10 -45 -69 -14 -32 -25
-52 -25 -44 0 47 76 157 120 173 24 9 25 8 61 -16z m-2111 -27 c11 -7 7 -10
-17 -10 -18 0 -33 5 -33 10 0 13 30 13 50 0z m2365 -45 c0 -5 -10 -11 -22 -13
-16 -2 -23 2 -23 13 0 11 7 15 23 13 12 -2 22 -7 22 -13z m-1900 -43 c-3 -3
-11 0 -18 7 -9 10 -8 11 6 5 10 -3 15 -9 12 -12z m1555 -12 c6 -11 8 -20 6
-20 -3 0 -10 9 -16 20 -6 11 -8 20 -6 20 3 0 10 -9 16 -20z m-1585 -42 c-3
-12 -9 -26 -15 -32 -5 -5 -10 -21 -10 -35 0 -20 -2 -23 -10 -11 -5 9 -4 23 5
40 7 14 16 33 19 43 8 24 16 21 11 -5z m-2617 0 c7 -7 12 -21 11 -32 0 -19 -1
-19 -10 2 -9 23 -34 26 -34 5 0 -6 -3 -15 -7 -19 -12 -11 -10 14 2 37 12 22
21 24 38 7z m39 -45 c-3 -10 -5 -4 -5 12 0 17 2 24 5 18 2 -7 2 -21 0 -30z
m1130 5 c-3 -7 -5 -2 -5 12 0 14 2 19 5 13 2 -7 2 -19 0 -25z m418 2 c-32 -61
-12 -111 51 -130 25 -7 26 -8 6 -9 -13 -1 -40 15 -66 39 -23 22 -46 37 -49 33
-4 -3 -7 -1 -7 5 0 6 9 14 20 17 11 3 20 12 20 18 0 13 28 57 36 57 2 0 -2
-13 -11 -30z m2516 -30 c-5 -25 -9 -35 -10 -24 -1 28 11 92 16 79 1 -6 -1 -30
-6 -55z m-2398 32 c33 -36 19 -112 -20 -112 -9 0 -3 10 14 25 15 13 23 25 16
25 -7 0 -16 -8 -22 -17 -8 -15 -13 -15 -36 -5 -37 17 -44 14 -16 -8 17 -15 19
-20 7 -20 -38 0 -52 61 -26 109 14 26 61 28 83 3z m917 -51 c-6 -12 -15 -21
-21 -21 -5 0 -2 11 8 24 21 28 29 27 13 -3z m-1066 -46 c3 -8 1 -15 -3 -15 -5
0 -11 7 -15 15 -3 8 -1 15 3 15 5 0 11 -7 15 -15z m865 -51 c-5 -6 -6 -20 -2
-29 4 -13 3 -16 -5 -11 -13 8 -16 58 -5 69 11 12 23 -16 12 -29z m43 -11 c-6
-3 -9 -10 -6 -15 4 -7 2 -8 -5 -4 -9 6 -9 11 0 22 6 8 15 12 18 8 3 -4 0 -9
-7 -11z m1635 -55 c-2 -13 -4 -3 -4 22 0 25 2 35 4 23 2 -13 2 -33 0 -45z
m-2474 23 c-17 -16 -28 -32 -25 -36 4 -4 2 -5 -3 -4 -5 2 -21 -3 -35 -10 -14
-8 -2 7 25 32 28 25 55 46 60 46 6 0 -4 -13 -22 -28z m784 -33 c-3 -8 -6 -5
-6 6 -1 11 2 17 5 13 3 -3 4 -12 1 -19z m-797 -22 c0 -2 -7 -7 -16 -10 -8 -3
-12 -2 -9 4 6 10 25 14 25 6z m2497 -28 c-3 -7 -5 -2 -5 12 0 14 2 19 5 13 2
-7 2 -19 0 -25z m-2587 -18 c-8 -5 -24 -9 -35 -9 -16 1 -16 2 5 9 35 11 48 11
30 0z m-77 -17 c-7 -2 -19 -2 -25 0 -7 3 -2 5 12 5 14 0 19 -2 13 -5z m1913
-221 c-269 -1 -491 0 -494 2 -7 7 18 75 34 90 14 15 60 17 573 21 l255 2 20
26 20 27 41 -82 40 -83 -489 -3z m-2706 107 c11 -7 4 -8 -25 -3 -50 8 -58 14
-19 14 16 0 36 -5 44 -11z m1360 -37 c-29 -5 -36 4 -19 24 12 14 14 14 27 -3
11 -16 11 -18 -8 -21z m-700 3 c190 -8 386 -18 435 -22 l90 -7 -210 -17 c-115
-10 -327 -25 -470 -33 -143 -9 -275 -19 -294 -22 l-34 -6 31 36 c17 20 39 50
47 66 12 23 21 29 38 25 12 -2 177 -11 367 -20z m3030 11 c0 -2 -8 -10 -17
-17 -16 -13 -17 -12 -4 4 13 16 21 21 21 13z m-45 -26 c-3 -5 -14 -10 -23 -9
-14 0 -13 2 3 9 27 11 27 11 20 0z m-52 -17 c-7 -2 -19 -2 -25 0 -7 3 -2 5 12
5 14 0 19 -2 13 -5z"/>
<path d="M2853 2753 c9 -2 23 -2 30 0 6 3 -1 5 -18 5 -16 0 -22 -2 -12 -5z"/>
<path d="M2623 2743 c9 -2 25 -2 35 0 9 3 1 5 -18 5 -19 0 -27 -2 -17 -5z"/>
<path d="M2773 2743 c9 -2 25 -2 35 0 9 3 1 5 -18 5 -19 0 -27 -2 -17 -5z"/>
<path d="M3048 2743 c7 -3 16 -2 19 1 4 3 -2 6 -13 5 -11 0 -14 -3 -6 -6z"/>
<path d="M3178 2743 c7 -3 16 -2 19 1 4 3 -2 6 -13 5 -11 0 -14 -3 -6 -6z"/>
<path d="M2310 2720 c19 -13 30 -13 30 0 0 6 -10 10 -22 10 -19 0 -20 -2 -8
-10z"/>
<path d="M2358 2723 c6 -2 18 -2 25 0 6 3 1 5 -13 5 -14 0 -19 -2 -12 -5z"/>
<path d="M3300 2720 c-9 -6 -10 -10 -3 -10 6 0 15 5 18 10 8 12 4 12 -15 0z"/>
<path d="M3322 2704 c-11 -12 -8 -14 13 -14 26 0 34 14 12 23 -6 2 -18 -2 -25
-9z"/>
<path d="M2233 2683 c9 -2 23 -2 30 0 6 3 -1 5 -18 5 -16 0 -22 -2 -12 -5z"/>
<path d="M2745 2650 c-3 -5 -2 -10 4 -10 5 0 13 5 16 10 3 6 2 10 -4 10 -5 0
-13 -4 -16 -10z"/>
<path d="M3147 2629 c7 -7 15 -10 18 -7 3 3 -2 9 -12 12 -14 6 -15 5 -6 -5z"/>
<path d="M2622 2581 c-11 -7 -11 -9 0 -14 9 -3 15 1 15 9 0 8 -1 14 -1 14 -1
0 -7 -4 -14 -9z"/>
<path d="M2640 2540 c0 -5 5 -10 11 -10 5 0 7 5 4 10 -3 6 -8 10 -11 10 -2 0
-4 -4 -4 -10z"/>
<path d="M2985 1759 c4 -5 14 -9 24 -9 10 0 31 -10 47 -22 l29 -21 -20 21
c-21 22 -91 50 -80 31z"/>
<path d="M2975 1710 c10 -11 20 -20 23 -20 3 0 -3 9 -13 20 -10 11 -20 20 -23
20 -3 0 3 -9 13 -20z"/>
<path d="M3036 1715 c4 -8 11 -15 16 -15 6 0 5 6 -2 15 -7 8 -14 15 -16 15 -2
0 -1 -7 2 -15z"/>
<path d="M3065 1560 c3 -14 11 -76 17 -138 10 -107 9 -116 -12 -175 -13 -34
-33 -78 -45 -97 -23 -37 -93 -104 -116 -112 -8 -3 -11 -8 -8 -12 11 -12 73 19
108 55 54 54 84 130 91 229 6 103 -3 193 -25 240 -10 22 -14 26 -10 10z"/>
<path d="M3131 1518 c0 -27 4 -48 9 -48 11 0 11 21 0 65 -7 27 -8 25 -9 -17z"/>
<path d="M2801 1534 c0 -11 3 -14 6 -6 3 7 2 16 -1 19 -3 4 -6 -2 -5 -13z"/>
<path d="M2846 1490 c7 -58 11 -70 23 -70 18 0 34 40 22 54 -6 7 -9 15 -6 18
3 3 -1 11 -10 18 -12 10 -15 10 -16 -1 0 -8 -4 -5 -9 6 -6 14 -7 6 -4 -25z"/>
<path d="M2831 1424 c0 -11 3 -14 6 -6 3 7 2 16 -1 19 -3 4 -6 -2 -5 -13z"/>
<path d="M2912 1417 c-29 -37 -34 -58 -17 -83 8 -13 20 -24 25 -24 13 0 40 54
40 79 0 26 -34 46 -48 28z m15 -52 c0 -8 -4 -12 -9 -9 -5 3 -6 10 -3 15 9 13
12 11 12 -6z"/>
<path d="M3023 1400 c-11 -16 -10 -18 2 -14 8 4 15 12 15 20 0 19 -3 18 -17
-6z"/>
<path d="M2987 1329 c-10 -22 -15 -51 -12 -62 6 -22 6 -22 -9 -3 -20 25 -20
36 0 64 8 12 12 22 7 22 -4 -1 -17 -15 -28 -33 -11 -17 -29 -33 -40 -35 -27
-5 -45 -30 -37 -50 5 -15 4 -15 -12 1 -21 21 -27 22 -20 3 6 -14 -27 -40 -40
-31 -3 3 -4 2 -1 -2 3 -3 -3 -11 -11 -18 -13 -9 -15 -19 -9 -46 5 -20 10 -28
13 -19 3 8 11 20 18 28 7 7 12 18 10 25 -1 7 -1 8 2 3 3 -5 12 1 21 13 16 21
17 21 17 2 0 -11 -4 -19 -9 -18 -5 1 -16 -8 -24 -20 -13 -19 -13 -23 -2 -23
11 0 11 -2 0 -9 -22 -14 5 -44 32 -35 13 4 17 2 13 -5 -18 -28 18 -6 67 42 71
69 104 165 79 230 -6 13 -11 9 -25 -24z m20 -34 c-4 -8 -11 -15 -17 -15 -7 0
-7 6 0 21 13 23 26 19 17 -6z m-71 -46 c-17 -25 -20 -19 -10 19 5 15 10 20 16
14 7 -7 5 -18 -6 -33z m-36 11 c0 -5 -5 -10 -11 -10 -5 0 -7 5 -4 10 3 6 8 10
11 10 2 0 4 -4 4 -10z m97 -22 c-3 -8 -6 -5 -6 6 -1 11 2 17 5 13 3 -3 4 -12
1 -19z m-67 -48 c0 -5 -4 -10 -10 -10 -5 0 -10 5 -10 10 0 6 5 10 10 10 6 0
10 -4 10 -10z m-5 -60 c-45 -46 -68 -54 -33 -11 13 15 26 27 30 24 4 -2 13 5
20 16 7 11 14 18 17 15 3 -2 -13 -22 -34 -44z"/>
<path d="M4536 1741 c-16 -17 -16 -19 0 -25 9 -4 19 -4 22 -1 3 3 -1 5 -8 5
-12 0 -12 2 -1 13 10 9 15 9 18 0 2 -7 10 -10 18 -7 48 19 113 -100 122 -223
6 -86 22 -135 23 -68 0 99 -61 280 -104 311 -28 20 -70 18 -90 -5z"/>
<path d="M4648 1470 c-2 -30 -1 -59 3 -65 4 -5 9 -19 12 -30 2 -11 6 3 7 30 2
41 3 45 10 25 9 -28 10 -27 15 13 2 18 -1 27 -10 27 -7 0 -18 12 -23 28 -8 24
-10 22 -14 -28z"/>
<path d="M4486 1471 c-22 -25 -15 -76 10 -67 9 3 12 1 9 -4 -3 -6 1 -10 9 -10
17 0 36 30 36 57 0 15 -2 16 -10 3 -5 -8 -10 -10 -10 -4 0 5 -6 18 -13 28 -12
16 -14 16 -31 -3z m34 -31 c0 -5 -5 -10 -11 -10 -5 0 -7 5 -4 10 3 6 8 10 11
10 2 0 4 -4 4 -10z"/>
<path d="M4482 1360 c-14 -23 -15 -30 -3 -30 8 0 24 41 18 47 -2 1 -8 -7 -15
-17z"/>
<path d="M4507 1353 c-4 -3 -7 -21 -7 -38 0 -18 -7 -38 -15 -45 -8 -7 -14 -24
-14 -39 1 -21 2 -22 6 -5 2 12 17 34 34 49 16 16 29 36 29 46 0 19 -24 42 -33
32z"/>
<path d="M4641 1270 c-8 -34 -22 -77 -32 -97 -10 -20 -17 -39 -15 -41 14 -14
73 161 64 189 -2 6 -10 -17 -17 -51z"/>
<path d="M4722 1305 c0 -16 2 -22 5 -12 2 9 2 23 0 30 -3 6 -5 -1 -5 -18z"/>
<path d="M4500 1249 c-6 -11 -9 -25 -6 -32 2 -7 8 -2 11 11 4 12 12 22 17 22
5 0 6 -5 2 -12 -4 -7 -3 -8 4 -4 17 10 15 36 -3 36 -8 0 -19 -9 -25 -21z"/>
<path d="M1969 1538 c-12 -23 -12 -23 10 -4 23 21 26 26 11 26 -5 0 -15 -10
-21 -22z"/>
<path d="M2020 1537 c0 -8 7 -17 15 -21 8 -3 15 -2 15 3 0 5 -7 14 -15 21 -12
10 -15 10 -15 -3z"/>
<path d="M3318 2783 c7 -3 16 -2 19 1 4 3 -2 6 -13 5 -11 0 -14 -3 -6 -6z"/>
<path d="M3369 2767 c13 -6 32 -30 42 -52 10 -22 19 -34 19 -27 0 36 -48 94
-77 91 -4 0 3 -6 16 -12z"/>
<path d="M3545 2730 c91 -15 89 -20 -4 -13 l-84 6 6 -74 c4 -41 9 -140 13
-221 6 -133 5 -148 -10 -148 -14 0 -16 20 -18 168 l-2 167 -3 -162 c-4 -187 6
-173 -110 -149 -37 8 -95 17 -128 20 -55 5 -56 4 -15 -4 25 -5 89 -16 142 -26
111 -20 118 -25 154 -111 13 -32 24 -51 24 -42 0 9 -13 42 -28 73 -24 46 -26
56 -13 56 32 0 61 -13 61 -26 0 -21 37 -54 61 -54 18 0 21 4 16 30 -5 20 -3
28 6 25 27 -10 355 -34 397 -29 33 3 40 2 25 -5 -15 -7 -8 -10 33 -10 33 -1
51 3 47 9 -3 5 -17 51 -30 102 -14 51 -40 140 -59 198 l-34 105 -48 24 c-66
32 -300 90 -388 96 l-71 4 60 -9z m455 -188 c10 -34 15 -62 11 -62 -4 0 -16
32 -28 71 -11 39 -17 67 -11 61 5 -5 17 -37 28 -70z m71 -232 c10 -41 18 -82
18 -90 0 -8 -9 19 -20 60 -25 101 -41 153 -51 166 -4 6 -4 14 0 18 8 8 22 -34
53 -154z m-380 37 c19 -15 39 -50 39 -70 0 -13 -10 -12 -62 5 -35 10 -78 18
-95 16 -18 -2 -33 -1 -33 2 0 9 42 46 60 53 27 10 75 7 91 -6z"/>
<path d="M3431 2644 c0 -11 3 -14 6 -6 3 7 2 16 -1 19 -3 4 -6 -2 -5 -13z"/>
<path d="M2735 2360 c-22 -4 7 -5 65 -2 58 2 107 6 109 8 7 7 -132 1 -174 -6z"/>
<path d="M2921 2356 c2 -2 38 -6 79 -9 56 -4 65 -3 35 3 -40 9 -122 13 -114 6z"/>
<path d="M1987 2341 c-205 -7 -210 -8 -205 -66 l3 -30 72 0 c39 0 75 -3 79 -7
4 -5 -1 -8 -11 -8 -26 0 -316 -87 -407 -122 -51 -19 -78 -35 -78 -45 0 -8 6
-13 13 -10 185 70 524 165 681 192 55 9 116 25 135 35 20 10 55 24 79 31 23 7
39 16 35 19 -13 12 -197 17 -396 11z"/>
<path d="M2658 2343 c6 -2 18 -2 25 0 6 3 1 5 -13 5 -14 0 -19 -2 -12 -5z"/>
<path d="M2618 2333 c7 -3 16 -2 19 1 4 3 -2 6 -13 5 -11 0 -14 -3 -6 -6z"/>
<path d="M3093 2333 c9 -2 25 -2 35 0 9 3 1 5 -18 5 -19 0 -27 -2 -17 -5z"/>
<path d="M2495 2300 c-13 -5 -14 -9 -5 -9 8 0 24 4 35 9 13 5 14 9 5 9 -8 0
-24 -4 -35 -9z"/>
<path d="M1192 2272 c-51 -14 -90 -27 -88 -29 5 -5 197 44 205 52 8 9 -23 3
-117 -23z"/>
<path d="M2425 2280 c-13 -5 -14 -9 -5 -9 8 0 24 4 35 9 13 5 14 9 5 9 -8 0
-24 -4 -35 -9z"/>
<path d="M2378 2263 c7 -3 16 -2 19 1 4 3 -2 6 -13 5 -11 0 -14 -3 -6 -6z"/>
<path d="M1040 2226 c-48 -18 -197 -94 -203 -103 -3 -5 41 15 96 42 56 28 116
56 132 62 17 6 26 11 20 11 -5 0 -26 -5 -45 -12z"/>
<path d="M2358 2225 c-61 -17 -153 -60 -251 -118 -84 -50 -92 -54 -81 -35 4 7
3 8 -5 4 -6 -4 -9 -11 -6 -16 3 -5 -16 -23 -42 -41 -27 -18 -72 -52 -101 -77
-29 -24 -55 -42 -58 -39 -3 3 31 33 75 67 45 34 81 65 81 67 0 3 -6 1 -12 -4
-7 -6 -33 -26 -58 -44 -25 -19 -77 -60 -117 -92 -60 -48 -79 -57 -115 -59 -42
-1 -42 -1 -6 -5 28 -3 37 -9 42 -28 4 -14 18 -27 38 -34 47 -17 239 -24 338
-12 l85 10 -110 -5 c-135 -5 -309 8 -330 26 -13 11 -7 19 47 62 35 27 82 59
106 69 54 26 177 49 254 49 54 0 64 -3 105 -37 25 -20 50 -38 57 -40 6 -1 27
-6 46 -11 l35 -8 -58 -39 c-32 -21 -79 -44 -105 -51 -30 -8 -38 -13 -22 -13
86 -2 284 164 319 268 44 133 -27 221 -151 186z m113 -18 c68 -52 43 -196 -50
-280 -37 -33 -47 -37 -74 -32 -18 4 -36 11 -41 15 -5 5 -14 6 -21 4 -18 -7
-65 58 -72 100 -3 19 -2 51 1 70 8 42 59 101 81 92 8 -3 15 -2 15 2 0 4 10 8
23 9 12 1 34 4 50 6 15 3 27 2 27 -3 0 -4 9 -10 20 -13 20 -5 45 15 33 26 -10
11 -101 8 -108 -3 -3 -5 -12 -10 -18 -10 -7 0 -3 7 7 15 24 18 105 19 127 2z
m-691 -338 c-43 -36 -76 -56 -65 -39 8 13 85 70 94 70 3 0 -10 -14 -29 -31z"/>
<path d="M2467 2176 c-4 -9 -2 -16 3 -16 24 0 4 -128 -25 -165 -15 -18 -15
-17 0 12 17 35 20 57 6 49 -4 -3 -17 4 -27 15 l-18 20 -14 -23 c-13 -22 -13
-22 -8 9 6 38 -5 47 -54 49 -61 2 -62 3 -56 21 5 13 0 11 -18 -6 -48 -46 -46
-138 4 -194 16 -18 30 -27 30 -21 0 6 -9 19 -20 29 -27 25 -46 95 -29 106 7 4
18 5 24 2 5 -4 7 -3 3 2 -4 4 2 15 14 25 24 19 69 15 62 -5 -3 -7 0 -16 7 -21
8 -5 10 -3 4 6 -6 9 -4 11 4 5 9 -5 10 -10 2 -18 -6 -6 -11 -18 -11 -26 0 -14
2 -14 11 -1 8 12 10 12 7 1 -5 -19 -49 -22 -69 -4 -9 7 -26 16 -39 18 -19 4
-20 2 -9 -12 8 -9 14 -21 15 -27 0 -6 2 -17 2 -24 1 -7 7 -10 12 -7 6 4 7 12
3 18 -11 18 -12 37 -2 37 6 0 9 -6 7 -12 -1 -7 3 -23 10 -35 11 -19 10 -22 -3
-17 -25 10 -17 -12 9 -24 28 -12 79 -2 105 22 9 8 21 14 26 14 20 -2 55 85 55
137 0 55 -13 88 -23 61z m-189 -54 c9 -6 5 -15 -14 -33 -22 -19 -26 -20 -21
-6 4 10 7 25 7 33 0 16 9 18 28 6z"/>
<path d="M2339 2153 c-13 -15 -12 -15 9 -4 23 12 28 21 13 21 -5 0 -15 -7 -22
-17z"/>
<path d="M2376 2152 c-3 -4 4 -9 15 -9 23 -2 25 3 4 10 -8 4 -16 3 -19 -1z"/>
<path d="M610 2218 c0 -10 9 -9 35 2 17 8 16 8 -7 7 -16 -1 -28 -5 -28 -9z"/>
<path d="M634 2115 c3 -21 16 -31 16 -12 0 9 -4 18 -9 21 -5 4 -8 -1 -7 -9z"/>
<path d="M724 2038 l-19 -23 23 19 c21 18 27 26 19 26 -2 0 -12 -10 -23 -22z"/>
<path d="M733 1993 c15 -2 39 -2 55 0 15 2 2 4 -28 4 -30 0 -43 -2 -27 -4z"/>
<path d="M848 1993 c6 -2 18 -2 25 0 6 3 1 5 -13 5 -14 0 -19 -2 -12 -5z"/>
<path d="M1158 1983 c12 -2 32 -2 45 0 12 2 2 4 -23 4 -25 0 -35 -2 -22 -4z"/>
<path d="M1343 1973 c15 -2 39 -2 55 0 15 2 2 4 -28 4 -30 0 -43 -2 -27 -4z"/>
<path d="M1537 1963 c18 -2 50 -2 70 0 21 2 7 4 -32 4 -38 0 -55 -2 -38 -4z"/>
<path d="M1718 1953 c12 -2 30 -2 40 0 9 3 -1 5 -23 4 -22 0 -30 -2 -17 -4z"/>
<path d="M345 1930 c-16 -7 -14 -8 12 -7 17 1 29 5 26 10 -5 9 -12 8 -38 -3z"/>
<path d="M1068 1924 c-9 -10 -34 -20 -55 -24 -37 -8 -37 -8 -6 -9 21 -1 42 8
60 24 15 13 26 25 23 25 -3 0 -13 -7 -22 -16z"/>
<path d="M437 1919 c-10 -6 -41 -11 -68 -11 -46 1 -49 -1 -57 -31 -5 -18 -8
-34 -6 -36 5 -6 132 60 145 75 14 17 10 17 -14 3z"/>
<path d="M588 1883 c17 -2 47 -2 65 0 17 2 3 4 -33 4 -36 0 -50 -2 -32 -4z"/>
<path d="M788 1873 c17 -2 47 -2 65 0 17 2 3 4 -33 4 -36 0 -50 -2 -32 -4z"/>
<path d="M2307 1869 c7 -7 15 -10 18 -7 3 3 -2 9 -12 12 -14 6 -15 5 -6 -5z"/>
<path d="M1013 1863 c15 -2 37 -2 50 0 12 2 0 4 -28 4 -27 0 -38 -2 -22 -4z"/>
<path d="M1178 1853 c34 -2 90 -2 125 0 34 2 6 3 -63 3 -69 0 -97 -1 -62 -3z"/>
<path d="M1498 1843 c23 -2 61 -2 85 0 23 2 4 4 -43 4 -47 0 -66 -2 -42 -4z"/>
<path d="M1669 1803 c-13 -16 -12 -17 4 -4 9 7 17 15 17 17 0 8 -8 3 -21 -13z"/>
<path d="M4861 255 c0 -17 -6 -36 -13 -43 -9 -9 -9 -12 0 -12 14 0 26 41 19
67 -3 11 -5 6 -6 -12z"/>
<path d="M4830 239 c0 -5 5 -7 10 -4 6 3 10 8 10 11 0 2 -4 4 -10 4 -5 0 -10
-5 -10 -11z"/>
<path d="M4796 215 c-3 -9 -6 -22 -5 -28 0 -7 5 -1 10 12 5 13 8 26 5 28 -2 2
-6 -3 -10 -12z"/>
</g>
</svg>
