<?xml version="1.0" standalone="no"?>
<!DOCTYPE svg PUBLIC "-//W3C//DTD SVG 20010904//EN"
 "http://www.w3.org/TR/2001/REC-SVG-20010904/DTD/svg10.dtd">
<svg version="1.0" xmlns="http://www.w3.org/2000/svg"
 width="512.000000pt" height="768.000000pt" viewBox="0 0 512.000000 768.000000"
 preserveAspectRatio="xMidYMid meet">

<g transform="translate(0.000000,768.000000) scale(0.100000,-0.100000)"
fill="#000000" stroke="none">
<path d="M0 3840 l0 -3840 2560 0 2560 0 0 3840 0 3840 -540 0 -540 0 0 -110
c0 -92 3 -110 15 -110 9 0 20 -10 26 -22 l10 -23 404 3 405 3 0 -3491 0 -3490
-2157 0 c-1187 -1 -2242 -3 -2345 -6 l-188 -6 0 3496 0 3496 431 0 431 0 29
27 c28 27 29 30 29 130 l0 103 -565 0 -565 0 0 -3840z"/>
<path d="M1150 7575 c0 -94 2 -105 20 -115 11 -6 20 -17 20 -25 0 -13 176 -15
1390 -15 l1389 0 26 25 c24 24 25 32 25 130 l0 105 -1435 0 -1435 0 0 -105z"/>
<path d="M1109 7407 c-10 -42 -13 -45 -51 -51 -21 -4 -43 -4 -49 -1 -5 4 -9
-17 -9 -50 0 -54 1 -55 24 -49 22 5 25 2 28 -28 3 -29 7 -33 36 -36 30 -3 32
-1 32 27 0 49 35 50 41 1 3 -21 10 -26 42 -28 l37 -3 0 40 c0 23 5 41 10 41 6
0 10 -5 10 -12 0 -29 18 10 23 50 l5 42 -58 0 -59 0 -3 48 c-3 40 -6 47 -25
50 -19 3 -24 -4 -34 -41z m49 -11 c-3 -29 -14 -46 -30 -46 -9 0 -10 36 -2 67
9 34 36 17 32 -21z"/>
<path d="M4007 7433 c-4 -3 -7 -22 -7 -42 l0 -36 -46 3 -45 4 3 -48 c3 -42 6
-49 25 -52 16 -2 23 -11 25 -35 3 -29 6 -32 38 -32 31 0 35 3 38 28 4 37 36
33 40 -6 3 -24 8 -27 38 -27 33 0 34 1 34 41 0 34 3 39 13 30 20 -16 27 -4 27
46 l0 43 -60 0 c-60 0 -60 0 -60 29 0 16 -3 36 -6 45 -6 16 -45 22 -57 9z m41
-49 c-5 -42 -28 -43 -28 -1 0 18 3 37 7 40 12 13 25 -10 21 -39z"/>
<path d="M670 6595 l0 -125 1895 0 1895 0 0 125 0 125 -1895 0 -1895 0 0 -125z
m1860 10 c0 -8 -4 -15 -10 -15 -5 0 -10 7 -10 15 0 8 5 15 10 15 6 0 10 -7 10
-15z m84 0 c-4 -8 -8 -15 -10 -15 -2 0 -4 7 -4 15 0 8 4 15 10 15 5 0 7 -7 4
-15z"/>
<path d="M3205 6398 c-32 -18 -35 -28 -35 -115 l0 -83 48 0 47 0 -2 82 c-1 72
-16 129 -32 128 -3 0 -15 -6 -26 -12z"/>
<path d="M2454 6325 c-2 -5 -5 -26 -7 -45 -4 -35 -4 -35 -5 5 l-2 40 -485 -3
c-482 -2 -485 -2 -496 -24 -6 -11 -8 -37 -5 -58 4 -28 2 -39 -9 -44 -8 -3 -15
-1 -15 5 0 6 -5 7 -11 3 -7 -4 -55 -8 -108 -9 -92 -1 -161 -18 -161 -39 0 -4
-6 -6 -14 -3 -7 3 -24 -1 -36 -10 -17 -12 -20 -22 -17 -49 4 -31 3 -34 -22
-34 -14 0 -33 -4 -40 -9 -12 -8 -10 -12 10 -20 13 -5 36 -12 52 -15 15 -4 27
-13 27 -20 0 -11 -21 -13 -95 -12 -73 1 -96 -2 -100 -13 -3 -8 -4 -15 -2 -17
1 -2 183 -6 404 -10 397 -7 402 -7 406 -28 4 -20 4 -20 6 2 1 21 5 22 95 22
89 0 95 -1 91 -20 -5 -25 -1 -25 21 -2 16 15 52 18 368 23 193 3 352 7 354 8
1 0 2 8 2 16 0 13 -21 15 -125 15 -69 0 -125 4 -125 9 0 5 24 15 53 21 28 7
56 15 61 18 13 7 -22 20 -56 21 -16 1 -28 4 -28 9 0 4 20 6 44 4 79 -7 86 3
86 121 0 131 -10 152 -69 152 -24 1 -45 -4 -47 -10z m-268 -35 c34 0 35 -1 32
-32 l-3 -33 -120 0 c-152 0 -155 0 -155 36 l0 29 84 0 c85 0 85 0 89 -27 4
-25 4 -25 6 6 1 26 4 32 17 27 9 -3 31 -6 50 -6z m-616 -30 c0 -28 -3 -30 -35
-30 -22 0 -38 6 -41 15 -11 28 4 45 41 45 32 0 35 -2 35 -30z m90 -6 c0 -29
-3 -35 -16 -30 -9 3 -26 6 -38 6 -17 0 -22 6 -24 30 -2 29 -1 30 38 30 39 0
40 -1 40 -36z m115 5 c-2 -31 -4 -32 -51 -32 -48 0 -49 1 -52 32 l-3 31 54 0
55 0 -3 -31z m153 0 c-3 -31 -4 -32 -58 -32 -51 0 -55 2 -52 23 2 13 -2 27
-10 31 -8 5 14 9 55 9 l68 0 -3 -31z m492 1 c0 -25 -4 -30 -24 -30 -13 0 -31
-3 -40 -6 -13 -5 -16 1 -18 27 -1 34 -1 34 -5 4 -4 -32 -2 -31 -90 -26 -8 1
-13 14 -13 31 l0 30 95 0 95 0 0 -30z m-451 -122 l-1 -33 -8 30 c-4 17 -8 24
-9 18 0 -7 -9 -13 -18 -13 -14 0 -15 -2 -5 -9 11 -7 10 -10 -3 -15 -32 -12
-45 -6 -45 18 0 21 5 25 38 29 20 2 40 4 45 5 4 1 6 -13 6 -30z m-729 -13 c0
-23 -4 -25 -45 -25 -41 0 -45 2 -45 25 0 23 4 25 45 25 41 0 45 -2 45 -25z
m-100 -17 c0 -6 -6 -5 -15 2 -8 7 -15 14 -15 16 0 2 7 1 15 -2 8 -4 15 -11 15
-16z m1413 -13 c-3 -9 -8 -14 -10 -11 -3 3 -2 9 2 15 9 16 15 13 8 -4z m-700
-32 c-51 -2 -135 -2 -185 0 -51 1 -10 3 92 3 102 0 143 -2 93 -3z m200 0 c-13
-2 -35 -2 -50 0 -16 2 -5 4 22 4 28 0 40 -2 28 -4z m344 1 c-3 -3 -12 -4 -19
-1 -8 3 -5 6 6 6 11 1 17 -2 13 -5z m-997 -48 c8 -2 -9 -4 -37 -5 -29 0 -53 3
-53 7 0 7 52 6 90 -2z m591 3 c8 -5 -65 -9 -174 -9 -110 0 -186 4 -183 9 8 12
339 11 357 0z m-443 -6 c-21 -2 -57 -2 -80 0 -24 2 -7 4 37 4 44 0 63 -2 43
-4z"/>
<path d="M2052 6260 c0 -14 2 -19 5 -12 2 6 2 18 0 25 -3 6 -5 1 -5 -13z"/>
<path d="M3550 6324 c-14 -2 -79 -16 -145 -30 l-120 -26 1 -32 c0 -17 4 -32 7
-33 4 -2 58 -3 121 -3 l114 0 -6 45 -5 45 62 0 61 0 0 -35 0 -35 -50 0 c-27 0
-50 -4 -50 -9 0 -6 27 -9 60 -8 33 1 62 -2 64 -8 2 -5 5 -4 5 3 1 6 11 12 24
11 21 0 21 -1 2 -9 -14 -6 -15 -9 -4 -9 8 -1 20 4 27 11 9 9 12 8 13 -7 0 -19
1 -19 9 0 5 11 9 15 9 8 1 -6 10 -9 24 -6 16 3 18 2 9 -5 -11 -7 -7 -11 13
-16 15 -4 30 -5 33 -1 3 3 -2 5 -11 5 -9 0 -17 5 -17 11 0 5 5 7 10 4 6 -3 10
-1 10 6 0 10 3 10 12 1 7 -7 17 -12 23 -12 5 0 3 5 -5 10 -12 8 -9 10 11 10
18 0 28 -6 32 -20 6 -22 23 -25 59 -11 23 8 24 13 20 73 -2 34 -9 66 -16 70
-11 8 -358 9 -406 2z m257 -69 l3 -35 -75 0 c-64 0 -75 2 -76 18 0 9 -2 25 -4
35 -3 15 6 17 73 17 l77 0 2 -35z m153 0 l0 -35 -68 0 -68 0 -2 35 -3 35 71 0
70 0 0 -35z m-606 4 c-5 -9 3 -10 28 -5 27 5 37 3 42 -9 3 -8 2 -15 -2 -15 -4
0 -18 -3 -31 -7 -17 -4 -22 -3 -17 5 4 7 3 12 -2 12 -6 0 -13 -8 -16 -17 -6
-15 -8 -15 -16 -3 -6 8 -10 11 -10 5 0 -5 -5 -3 -10 5 -14 22 -12 30 5 24 8
-4 15 -1 15 5 0 6 5 11 11 11 5 0 7 -5 3 -11z m103 -26 c-3 -10 -5 -4 -5 12 0
17 2 24 5 18 2 -7 2 -21 0 -30z m464 -30 c-11 -5 -11 -7 0 -14 11 -7 10 -9 -3
-9 -10 0 -18 7 -18 15 0 8 8 15 18 14 12 0 13 -2 3 -6z"/>
<path d="M3862 6250 c0 -14 2 -19 5 -12 2 6 2 18 0 25 -3 6 -5 1 -5 -13z"/>
<path d="M4047 6253 c-4 -3 -7 -17 -7 -31 0 -17 4 -23 15 -19 8 4 17 1 21 -5
4 -7 9 -6 15 3 5 8 9 9 9 4 0 -6 9 -11 20 -12 21 -2 26 19 14 51 -6 16 -73 23
-87 9z"/>
<path d="M2733 6231 c-13 -21 -20 -131 -9 -149 4 -8 186 -9 635 -5 446 4 634
2 647 -5 14 -8 -150 -11 -613 -12 -379 0 -634 -4 -638 -9 -3 -5 0 -13 7 -18 7
-4 315 -7 683 -6 369 1 750 2 848 3 150 0 177 2 177 15 0 13 -26 15 -175 15
-110 0 -175 4 -175 10 0 6 65 10 175 10 l175 0 0 25 0 25 -165 0 -165 0 0 25
c0 23 -4 25 -46 25 -39 0 -45 -3 -40 -17 3 -10 -1 -26 -9 -37 -12 -16 -16 -16
-28 -5 -11 12 -80 13 -393 9 -208 -3 -477 -3 -596 -2 l-218 4 -1 56 c-1 50 -2
53 -9 22 l-7 -35 -4 35 c-5 41 -36 53 -56 21z m1277 -122 c0 -5 -4 -9 -10 -9
-5 0 -10 7 -10 16 0 8 5 12 10 9 6 -3 10 -10 10 -16z"/>
<path d="M3630 6180 c8 -5 20 -10 25 -10 6 0 3 5 -5 10 -8 5 -19 10 -25 10 -5
0 -3 -5 5 -10z"/>
<path d="M3963 6173 c-19 -7 -16 -19 6 -20 14 -1 18 3 14 13 -3 8 -6 14 -7 13
0 0 -7 -3 -13 -6z"/>
<path d="M4033 6168 c3 -9 1 -19 -6 -22 -9 -3 -9 -5 0 -5 18 -1 23 13 11 29
-8 12 -9 12 -5 -2z"/>
<path d="M3430 5995 c0 -9 -10 -15 -27 -16 l-28 -1 30 -8 c26 -7 23 -8 -20 -8
-27 0 -44 2 -37 5 17 7 15 23 -2 23 -8 0 -17 -8 -19 -17 -4 -14 -5 -12 -6 5 0
12 -6 22 -12 22 -6 0 -9 -9 -6 -20 5 -19 1 -20 -126 -18 -73 1 -104 3 -69 5
81 5 80 18 -3 20 -57 1 -65 -1 -65 -17 0 -23 -44 -29 -112 -16 -38 8 -55 7
-83 -7 -40 -19 -50 -36 -41 -71 4 -18 15 -25 42 -31 45 -8 53 -1 29 25 -24 27
-7 71 24 63 27 -7 34 -32 17 -58 -14 -22 -14 -23 9 -29 41 -10 475 -6 475 5 0
5 -4 9 -10 9 -5 0 -10 5 -10 10 0 15 16 12 34 -5 10 -10 35 -15 77 -15 l62 0
-27 25 c-17 16 -39 25 -60 25 l-33 0 5 55 c2 30 2 55 -2 55 -3 0 -6 -7 -6 -15z
m-313 -103 c0 -22 -3 -23 -63 -21 -54 2 -64 5 -64 20 0 20 14 24 80 24 43 0
47 -2 47 -23z m193 -22 c0 -5 -23 -10 -51 -10 -31 0 -48 4 -44 10 3 6 26 10
51 10 24 0 44 -4 44 -10z"/>
<path d="M3180 5980 c0 -5 5 -10 10 -10 6 0 10 5 10 10 0 6 -4 10 -10 10 -5 0
-10 -4 -10 -10z"/>
<path d="M1413 5916 c-10 -11 -9 -15 2 -20 15 -5 39 17 28 27 -9 10 -16 8 -30
-7z"/>
<path d="M1615 5901 c6 -27 4 -29 -29 -33 -20 -2 -36 0 -36 4 0 4 -5 8 -11 8
-5 0 -7 -4 -4 -10 4 -6 -7 -10 -25 -10 -21 0 -29 4 -24 11 5 8 -4 10 -29 7
-20 -2 -38 0 -40 5 -1 4 -10 5 -20 1 -12 -4 -14 -10 -8 -18 6 -8 -9 -12 -57
-13 -58 -3 -94 -14 -81 -27 4 -4 637 -10 737 -8 45 2 53 5 50 19 -3 14 -22 20
-103 30 -55 6 -144 12 -197 12 -96 1 -98 2 -104 26 -9 35 -27 32 -19 -4z"/>
<path d="M1368 5913 c7 -3 16 -2 19 1 4 3 -2 6 -13 5 -11 0 -14 -3 -6 -6z"/>
<path d="M2882 5909 c2 -7 10 -15 17 -17 8 -3 12 1 9 9 -2 7 -10 15 -17 17 -8
3 -12 -1 -9 -9z"/>
<path d="M1340 5900 c8 -5 20 -10 25 -10 6 0 3 5 -5 10 -8 5 -19 10 -25 10 -5
0 -3 -5 5 -10z"/>
<path d="M3778 5852 c-30 -6 -20 -19 20 -27 20 -4 176 -7 347 -6 296 3 335 6
320 31 -4 7 -658 9 -687 2z"/>
<path d="M660 5789 c0 -20 2 -20 269 -17 148 2 272 6 276 10 24 24 -20 28
-276 28 -265 0 -269 0 -269 -21z"/>
<path d="M2182 5744 c-20 -14 -22 -23 -22 -113 0 -62 4 -101 12 -109 8 -8 55
-12 145 -12 l133 0 0 125 0 125 -123 0 c-95 0 -128 -4 -145 -16z m255 -50 c-3
-3 -12 -4 -19 -1 -8 3 -5 6 6 6 11 1 17 -2 13 -5z m-150 -61 c-3 -10 -5 -2 -5
17 0 19 2 27 5 18 2 -10 2 -26 0 -35z"/>
<path d="M2460 5635 l0 -125 160 0 160 0 0 125 0 125 -160 0 -160 0 0 -125z
m283 58 c-18 -2 -48 -2 -65 0 -18 2 -4 4 32 4 36 0 50 -2 33 -4z"/>
<path d="M2790 5635 l0 -125 150 0 150 0 0 125 0 125 -150 0 -150 0 0 -125z
m263 58 c-18 -2 -48 -2 -65 0 -18 2 -4 4 32 4 36 0 50 -2 33 -4z"/>
<path d="M3100 5635 l0 -125 145 0 145 0 0 125 0 125 -145 0 -145 0 0 -125z"/>
<path d="M3400 5635 l0 -125 124 0 124 0 7 40 c9 55 -4 172 -23 193 -13 14
-33 17 -124 17 l-108 0 0 -125z"/>
<path d="M1560 5677 c-27 -14 -70 -72 -70 -96 0 -8 10 5 23 29 12 25 33 51 47
57 28 14 346 18 367 5 8 -5 13 -44 16 -107 l3 -100 2 106 c2 90 -1 108 -14
113 -31 12 -348 6 -374 -7z"/>
<path d="M1586 5628 c-21 -32 -24 -55 -31 -215 l-6 -143 186 0 185 0 0 171 c0
98 -4 178 -10 190 -10 17 -23 19 -160 19 -144 0 -150 -1 -164 -22z m304 -17
c5 -11 10 -51 10 -90 l0 -71 -75 0 -75 0 0 90 0 90 65 0 c53 0 66 -3 75 -19z"/>
<path d="M868 5605 c-2 -3 -2 -27 2 -55 4 -27 3 -50 -2 -50 -4 0 -8 10 -8 23
0 33 -18 47 -60 47 -42 0 -60 -14 -60 -47 0 -19 -5 -23 -32 -24 -31 0 -32 -1
-10 -11 30 -15 28 -27 -8 -39 -19 -7 -30 -18 -30 -30 0 -18 13 -19 359 -19
198 0 366 -3 375 -6 29 -11 76 135 62 192 l-6 24 -289 0 c-158 0 -290 -2 -293
-5z m545 -33 c2 -4 0 -22 -5 -39 l-9 -33 -89 0 -90 0 -2 33 -1 32 -4 -32 -4
-33 -95 0 c-90 0 -94 1 -95 23 l-2 22 -4 -22 c-4 -21 -10 -23 -59 -23 -30 0
-54 4 -54 9 0 5 -3 23 -6 40 l-6 31 260 0 c144 -1 263 -4 265 -8z m-588 -47
c0 -26 -4 -30 -29 -33 -36 -4 -50 10 -42 43 6 22 11 26 39 23 28 -3 32 -7 32
-33z"/>
<path d="M1092 5535 c0 -16 2 -22 5 -12 2 9 2 23 0 30 -3 6 -5 -1 -5 -18z"/>
<path d="M2008 5569 c-13 -7 -18 -23 -18 -54 l0 -45 95 0 c128 0 123 -19 -7
-22 -70 -2 -103 -7 -106 -15 -3 -10 174 -13 862 -13 l866 0 -2 78 c-1 44 -3
59 -5 36 -4 -37 -7 -42 -35 -48 -17 -3 -356 -6 -754 -6 l-723 0 -21 22 c-11
12 -20 27 -20 34 0 35 -91 58 -132 33z"/>
<path d="M3736 5567 c-15 -11 -17 -25 -14 -89 l3 -75 -480 -7 c-264 -4 -663
-4 -887 0 l-408 6 1 -48 c1 -41 2 -44 8 -19 l6 30 868 3 c830 2 867 1 867 -16
0 -34 21 -42 107 -42 80 0 83 1 89 25 6 24 10 25 75 25 55 0 69 3 69 15 0 8
-4 16 -10 16 -5 1 -14 3 -20 4 -5 1 -39 3 -75 4 l-65 1 0 73 c0 59 -4 77 -18
90 -22 20 -91 22 -116 4z m112 -234 c-21 -2 -57 -2 -80 0 -24 2 -7 4 37 4 44
0 63 -2 43 -4z"/>
<path d="M4128 5572 c-48 -1 -88 -6 -88 -11 0 -4 41 -8 91 -9 50 0 93 -3 97
-6 3 -3 -35 -6 -85 -6 -93 0 -105 -3 -96 -25 3 -10 11 -11 29 -5 22 9 24 7 24
-20 0 -27 -3 -30 -30 -30 -27 0 -30 -3 -30 -30 0 -20 5 -30 15 -30 7 0 100 -2
205 -5 l190 -5 0 30 c0 25 -4 30 -24 30 -19 0 -23 4 -19 20 3 11 14 20 24 20
14 0 19 7 19 25 0 21 -5 25 -29 25 -16 0 -36 3 -45 6 -13 5 -16 -2 -16 -42 l0
-49 -125 3 -125 3 0 25 c0 25 1 25 85 23 73 -1 85 -4 90 -20 4 -13 16 -19 34
-19 25 0 27 3 27 35 l-1 35 -55 2 -55 1 50 7 c29 4 38 8 22 8 -17 1 -26 6 -22
12 4 7 -7 10 -31 8 -21 -2 -77 -4 -126 -6z"/>
<path d="M1482 5535 c0 -16 2 -22 5 -12 2 9 2 23 0 30 -3 6 -5 -1 -5 -18z"/>
<path d="M3900 5525 l0 -35 60 0 c52 0 60 2 60 19 0 43 -10 51 -66 51 l-54 0
0 -35z"/>
<path d="M1472 5240 c-2 -241 -2 -244 -20 -210 -27 54 -64 62 -277 58 -193 -4
-213 -8 -235 -57 -7 -15 -14 -50 -17 -78 l-6 -53 -93 0 c-51 0 -96 -4 -99 -10
-3 -5 -1 -10 5 -10 6 0 8 -4 5 -10 -3 -5 -22 -10 -41 -10 -27 0 -34 -4 -34
-19 0 -25 49 -31 255 -32 88 0 169 -3 180 -5 11 -3 29 -21 40 -41 30 -54 68
-78 123 -77 58 1 95 24 119 74 l18 37 89 7 c133 9 1064 7 1070 -2 8 -14 -263
-22 -726 -22 -421 0 -428 0 -428 -20 0 -20 7 -20 649 -20 l650 0 -6 37 c-4 26
-3 34 5 29 7 -4 12 -12 12 -18 0 -22 44 -69 82 -89 69 -35 154 -2 188 74 19
41 24 38 20 -12 l-2 -23 568 6 c363 4 571 9 578 16 5 5 28 10 49 10 29 0 46
-6 63 -25 27 -29 57 -32 82 -7 13 13 30 16 69 14 43 -2 53 0 53 12 0 12 -11
16 -43 16 -34 0 -44 4 -52 23 -10 21 -16 22 -137 25 -119 2 -128 4 -128 22 0
18 9 20 173 22 170 3 172 3 175 26 l3 22 -393 0 c-426 0 -391 4 -472 -54 -28
-20 -46 -16 -29 6 6 7 9 21 8 31 -2 9 1 15 6 11 5 -3 6 -10 3 -16 -3 -5 12 2
34 17 39 26 40 26 236 26 188 0 196 0 196 19 0 18 -8 20 -62 22 l-63 1 60 8
c41 4 26 5 -50 3 -60 -2 -134 -7 -162 -10 l-53 -7 -3 169 -3 169 -2 -167 c-2
-161 -3 -168 -22 -168 -19 0 -20 7 -20 94 0 89 -1 94 -22 100 -32 8 -121 7
-135 -2 -22 -14 -33 -64 -33 -155 0 -125 3 -133 46 -131 18 1 32 -2 29 -6 -3
-5 -15 -6 -28 -3 -18 4 -19 3 -7 -7 12 -10 11 -11 -7 -7 -19 4 -23 1 -24 -21
-2 -25 -2 -26 -6 -4 l-5 24 -174 -4 -174 -3 0 23 c0 37 -40 109 -81 146 -40
36 -109 76 -131 76 -7 0 6 -9 30 -20 97 -44 173 -137 171 -210 l-1 -35 -8 35
c-17 82 -55 135 -129 178 -40 23 -57 27 -126 27 -69 0 -86 -4 -125 -27 -87
-51 -137 -127 -142 -212 -1 -25 -2 -23 -8 14 -4 25 -8 36 -8 24 -2 -19 -6 -20
-47 -14 -25 4 -46 5 -48 3 -2 -1 -90 -4 -196 -5 -149 -2 -194 1 -200 11 -6 9
-11 10 -15 2 -5 -8 -95 -11 -294 -11 l-287 0 3 242 c2 134 2 275 0 313 -2 39
-5 -40 -6 -175z m2121 -77 c-13 -2 -35 -2 -50 0 -16 2 -5 4 22 4 28 0 40 -2
28 -4z m-2181 -104 c26 -14 48 -62 53 -116 l5 -48 -14 48 c-7 27 -25 61 -40
75 -26 27 -28 27 -189 30 -235 5 -253 -4 -271 -130 -5 -36 -12 -48 -24 -48
-10 0 -13 3 -7 8 6 4 10 30 10 57 0 57 19 110 43 121 48 22 394 24 434 3z
m1435 -161 c-41 -11 -60 -37 -59 -81 1 -39 28 -67 66 -68 l31 -2 -29 -4 c-33
-5 -71 25 -80 63 -13 49 35 103 89 102 11 0 3 -5 -18 -10z m-1598 -1 c-2 -2
-17 -11 -34 -21 l-30 -17 24 20 c13 12 28 21 34 21 6 0 8 -1 6 -3z m1667 -12
c23 -23 28 -77 9 -100 -16 -20 -16 -20 -6 2 16 33 13 57 -10 87 -22 28 -17 36
7 11z m-1657 -8 c-2 -1 -13 -9 -24 -17 -19 -14 -19 -14 -6 3 7 9 18 17 24 17
6 0 8 -1 6 -3z m1587 -13 c-19 -18 -22 -69 -4 -58 7 4 8 3 4 -4 -4 -7 -2 -12
5 -12 7 0 9 -3 6 -6 -4 -4 -18 1 -31 10 -17 11 -23 21 -19 33 9 22 35 53 46
53 5 0 1 -7 -7 -16z m54 -40 c0 -18 -4 -36 -10 -39 -6 -4 -7 5 -4 23 3 16 0
40 -7 53 -11 22 -11 23 4 10 10 -7 17 -28 17 -47z m950 27 c0 -5 -7 -12 -16
-15 -10 -4 -13 -2 -8 7 5 9 4 9 -6 0 -11 -10 -11 -15 0 -28 8 -10 9 -15 2 -15
-15 0 -35 38 -27 50 8 12 55 13 55 1z m-2638 -78 c11 -12 30 -24 42 -26 l21
-4 -21 -2 c-34 -2 -74 43 -73 81 l2 33 4 -30 c3 -16 14 -40 25 -52z m94 19
c-15 -15 -15 -15 -4 10 7 15 15 23 17 17 2 -6 -4 -18 -13 -27z m-59 6 c-3 -8
-6 -5 -6 6 -1 11 2 17 5 13 3 -3 4 -12 1 -19z m2167 8 c154 -4 282 -9 285 -11
2 -3 -131 -5 -297 -5 -258 0 -301 2 -296 14 3 8 11 13 17 11 7 -2 138 -6 291
-9z m900 -33 c8 -19 -8 -38 -23 -29 -16 10 -13 46 3 46 8 0 17 -8 20 -17z"/>
<path d="M3890 5453 c0 -16 9 -22 46 -27 79 -10 94 -8 94 14 0 17 -7 20 -47
20 -27 0 -58 3 -70 6 -18 5 -23 2 -23 -13z"/>
<path d="M1369 5386 c-2 -2 -158 -6 -347 -9 -311 -4 -365 -7 -351 -22 3 -2
124 -5 269 -6 258 -3 421 9 445 32 5 6 5 9 -1 9 -6 0 -13 -2 -15 -4z"/>
<path d="M4055 5360 c-12 -19 7 -32 39 -26 17 3 102 7 188 8 97 2 158 7 158
13 0 14 -376 19 -385 5z"/>
<path d="M2446 5315 c-9 -25 -7 -70 4 -100 10 -26 11 -27 35 -11 14 9 25 12
25 6 0 -6 17 -10 40 -8 34 2 40 5 40 25 0 28 -11 29 -48 6 -26 -17 -27 -17
-12 1 14 18 14 19 -3 10 -24 -14 -77 -5 -77 12 0 8 8 14 18 15 10 0 12 3 5 6
-7 2 -13 11 -13 20 0 12 3 12 16 -2 13 -12 19 -13 24 -4 6 8 9 6 13 -7 4 -18
5 -18 6 1 1 16 3 17 10 6 5 -8 21 -15 36 -17 23 -2 26 0 23 24 -3 26 -6 27
-69 30 -54 2 -68 0 -73 -13z m134 -23 c0 -13 -3 -12 -15 4 -14 19 -14 19 -15
0 0 -11 -3 -17 -6 -13 -4 3 -4 13 -1 21 8 20 37 10 37 -12z"/>
<path d="M2670 5316 c0 -2 7 -7 16 -10 8 -3 12 -2 9 4 -6 10 -25 14 -25 6z"/>
<path d="M3082 5300 c0 -14 2 -19 5 -12 2 6 2 18 0 25 -3 6 -5 1 -5 -13z"/>
<path d="M2646 5295 c-3 -8 -1 -15 4 -15 6 0 10 7 10 15 0 8 -2 15 -4 15 -2 0
-6 -7 -10 -15z"/>
<path d="M1407 5273 c-13 -13 -7 -32 8 -27 8 4 15 12 15 20 0 15 -12 19 -23 7z"/>
<path d="M1953 5240 c0 -25 2 -35 4 -22 2 12 2 32 0 45 -2 12 -4 2 -4 -23z"/>
<path d="M1853 5183 c-21 -3 -33 -10 -33 -19 0 -12 11 -14 53 -12 38 2 52 7
52 18 0 16 -20 20 -72 13z"/>
<path d="M766 5164 c-9 -9 -16 -32 -16 -54 0 -40 11 -50 56 -50 13 0 24 -4 24
-9 0 -14 -38 -24 -66 -17 -23 6 -25 4 -22 -21 3 -26 7 -28 51 -31 l47 -3 0
100 0 101 -29 0 c-16 0 -37 -7 -45 -16z"/>
<path d="M3845 5173 c-39 -6 -45 -17 -45 -79 0 -38 4 -53 16 -58 9 -3 58 -6
110 -6 l94 0 0 53 c0 94 -3 97 -79 96 -36 -1 -79 -4 -96 -6z"/>
<path d="M1335 5139 c-10 -14 -1 -21 19 -13 9 3 13 10 10 15 -7 12 -21 11 -29
-2z"/>
<path d="M2823 5103 c15 -2 37 -2 50 0 12 2 0 4 -28 4 -27 0 -38 -2 -22 -4z"/>
<path d="M2768 5093 c7 -3 16 -2 19 1 4 3 -2 6 -13 5 -11 0 -14 -3 -6 -6z"/>
<path d="M2650 5033 c-23 -20 -46 -46 -51 -57 -6 -12 1 -7 16 11 14 18 40 44
58 57 18 14 29 26 25 26 -5 0 -26 -16 -48 -37z"/>
<path d="M4050 4970 l0 -30 203 2 202 3 3 28 3 27 -205 0 -206 0 0 -30z"/>
<path d="M2576 4935 c-3 -9 -6 -22 -5 -28 0 -7 5 -1 10 12 5 13 8 26 5 28 -2
2 -6 -3 -10 -12z"/>
<path d="M813 4783 c-127 -3 -153 -6 -153 -18 0 -12 17 -15 88 -15 49 0 151
-3 226 -7 l138 -6 -4 24 c-3 27 -8 28 -295 22z"/>
<path d="M1140 4716 c0 -2 8 -10 18 -17 15 -13 16 -12 3 4 -13 16 -21 21 -21
13z"/>
<path d="M1984 4583 l19 -23 -34 0 c-167 -1 -406 -13 -423 -22 -12 -6 -45 -31
-74 -55 -30 -23 -57 -44 -60 -44 -4 -1 -18 -4 -32 -6 -14 -3 -95 -7 -180 -9
-210 -5 -303 -31 -376 -103 -33 -33 -64 -88 -64 -115 0 -12 -12 -16 -52 -18
l-53 -1 60 -7 60 -7 -57 -1 c-44 -2 -58 -6 -58 -17 0 -12 18 -15 100 -15 81 0
102 -3 106 -15 4 -9 15 -20 25 -25 17 -9 17 -8 4 17 -19 36 -5 51 31 34 25
-11 25 -12 10 -36 -22 -34 -3 -32 34 3 26 25 34 28 72 22 24 -3 68 -2 98 3 30
5 245 7 478 4 419 -4 423 -4 438 -25 8 -12 20 -22 26 -22 7 0 6 5 -2 15 -25
30 6 57 40 35 12 -8 13 -13 2 -30 -15 -25 -2 -26 24 -2 24 22 166 32 493 32
176 0 202 2 197 15 -5 13 32 15 294 15 193 0 300 -4 300 -10 0 -5 -10 -10 -22
-10 -22 0 -20 -10 4 -14 7 -1 22 -7 34 -14 19 -10 21 -9 17 11 -3 17 2 26 20
36 32 17 67 0 67 -33 0 -22 2 -22 34 -12 30 9 32 12 18 26 -14 14 -10 16 44
21 156 17 334 7 334 -18 0 -10 -6 -13 -16 -9 -8 3 -12 2 -9 -4 3 -6 15 -10 26
-10 10 0 19 -4 19 -10 0 -5 4 -10 8 -10 5 0 8 10 8 23 -1 18 5 23 31 25 24 2
33 -1 38 -17 3 -12 3 -26 -1 -33 -4 -7 7 -2 24 11 18 12 32 29 32 37 0 11 27
14 155 14 l155 0 0 35 0 35 -142 0 c-146 0 -192 -6 -182 -21 3 -5 0 -9 -5 -9
-6 0 -11 5 -11 10 0 13 -1257 9 -1282 -4 -15 -7 -18 -3 -18 18 0 19 8 32 30
44 34 19 40 54 15 89 -14 20 -25 21 -167 25 l-153 3 -62 38 c-34 21 -97 54
-140 74 -76 35 -81 36 -193 36 -111 -1 -116 0 -145 25 -22 20 -25 21 -11 5z
m-104 -104 c0 -15 -7 -19 -40 -19 -35 0 -40 3 -40 23 0 20 4 22 40 19 31 -3
40 -8 40 -23z m290 6 c0 -17 -7 -20 -45 -22 -25 -1 -45 2 -45 7 0 4 -3 15 -6
23 -4 11 5 14 45 13 44 -1 51 -4 51 -21z m-500 -5 c0 -16 -7 -20 -35 -20 -28
0 -35 4 -35 20 0 16 7 20 35 20 28 0 35 -4 35 -20z m80 0 c0 -16 -7 -20 -30
-20 -23 0 -30 4 -30 20 0 16 7 20 30 20 23 0 30 -4 30 -20z m280 0 c0 -17 -7
-20 -45 -20 -38 0 -45 3 -45 20 0 17 7 20 45 20 38 0 45 -3 45 -20z m-677
-267 c-13 -2 -33 -2 -45 0 -13 2 -3 4 22 4 25 0 35 -2 23 -4z"/>
<path d="M4079 4560 l-317 -5 -54 -38 c-31 -21 -70 -53 -87 -72 -31 -35 -32
-35 -121 -35 -53 0 -90 -4 -90 -10 0 -7 177 -10 510 -10 l510 0 -1 73 c0 75
-7 102 -24 102 -5 0 -152 -2 -326 -5z m289 -77 c3 -36 -11 -63 -32 -63 -6 0
-4 5 4 10 11 7 5 10 -22 10 -38 0 -38 0 -38 43 l0 42 43 -3 c41 -4 43 -5 45
-39z m-388 -8 l0 -45 -60 0 -60 0 -2 43 -1 42 -4 -42 -4 -43 -47 -1 c-26 0
-65 -2 -87 -5 l-40 -4 30 26 c35 30 87 64 98 64 4 0 7 -16 7 -35 0 -19 5 -35
11 -35 6 0 10 12 9 28 -4 52 -4 52 75 52 l75 0 0 -45z m160 5 l0 -40 -48 0
c-26 0 -52 -4 -57 -10 -7 -6 -9 9 -7 40 l4 50 54 0 54 0 0 -40z m130 0 l0 -40
-55 0 c-56 0 -57 1 -57 45 0 8 0 20 1 25 0 6 26 10 56 10 l55 0 0 -40z m-2
-57 c-26 -2 -71 -2 -100 0 -29 2 -8 3 47 3 55 0 79 -1 53 -3z"/>
<path d="M4336 4475 c-3 -8 -1 -15 4 -15 6 0 10 7 10 15 0 8 -2 15 -4 15 -2 0
-6 -7 -10 -15z"/>
<path d="M3220 4400 c0 -6 33 -10 80 -10 47 0 80 4 80 10 0 6 -33 10 -80 10
-47 0 -80 -4 -80 -10z"/>
<path d="M3344 4315 c-9 -21 15 -47 40 -43 15 2 22 12 24 31 3 24 0 27 -28 27
-18 0 -33 -6 -36 -15z"/>
<path d="M4189 4328 c-1 -2 -3 -13 -4 -26 -2 -20 2 -23 29 -20 42 4 45 41 4
46 -16 2 -29 2 -29 0z"/>
<path d="M3063 4155 c0 -8 4 -15 9 -15 4 0 8 7 8 15 0 8 -4 15 -8 15 -5 0 -9
-7 -9 -15z"/>
<path d="M4050 4149 c0 -5 5 -7 10 -4 6 3 10 8 10 11 0 2 -4 4 -10 4 -5 0 -10
-5 -10 -11z"/>
<path d="M4223 4153 c43 -2 110 -2 150 0 40 1 5 3 -78 3 -82 0 -115 -2 -72 -3z"/>
<path d="M3003 4143 c9 -2 25 -2 35 0 9 3 1 5 -18 5 -19 0 -27 -2 -17 -5z"/>
<path d="M3108 4143 c12 -2 30 -2 40 0 9 3 -1 5 -23 4 -22 0 -30 -2 -17 -4z"/>
<path d="M1168 4082 l-367 -2 -11 -41 c-15 -54 -50 -89 -90 -89 -25 0 -30 -4
-30 -23 l0 -24 498 -6 c798 -9 3265 -8 3281 2 20 13 7 37 -23 45 -24 6 -130
104 -138 126 -3 10 -2281 18 -3120 12z"/>
<path d="M670 3860 c0 -20 7 -20 938 -22 738 -1 2377 0 2785 2 60 0 67 2 67
20 0 20 -7 20 -1895 20 -1888 0 -1895 0 -1895 -20z"/>
<path d="M4146 3748 c-3 -13 -6 -47 -6 -75 l0 -53 38 0 c27 0 33 -3 22 -10
-13 -8 -12 -10 3 -10 9 0 17 6 18 13 0 6 4 2 9 -10 7 -17 17 -23 37 -22 l28 2
-27 4 c-18 3 -28 10 -28 21 0 15 2 15 10 2 6 -10 10 -11 10 -2 0 6 11 12 25
12 26 0 26 1 23 73 -3 71 -3 72 -31 75 -16 2 -35 -3 -44 -10 -13 -10 -17 -10
-20 0 -3 6 -17 12 -33 12 -20 0 -29 -6 -34 -22z"/>
<path d="M1123 3750 c-12 -5 -39 -35 -61 -67 -22 -32 -46 -64 -53 -70 -8 -6
-52 -16 -99 -23 -131 -20 -149 -33 -151 -113 -1 -23 -4 -32 -6 -19 -2 12 -10
22 -18 22 -7 0 -16 8 -20 18 -6 15 -8 15 -26 -7 -21 -26 -26 -71 -6 -71 8 0 7
-4 -3 -10 -10 -7 -3 -8 25 -5 30 4 35 3 20 -4 -17 -8 -13 -10 20 -12 l40 -2
-35 -7 c-34 -7 -34 -7 15 -10 38 -3 43 -4 18 -7 -21 -3 -34 -11 -38 -24 -4
-12 -15 -19 -33 -19 -34 0 -57 -14 -48 -29 5 -7 43 -11 102 -11 79 0 94 -2 94
-16 0 -14 -13 -15 -87 -12 -54 2 -89 -1 -90 -7 -2 -6 38 -10 102 -10 67 0 108
-4 113 -11 12 -20 76 -54 100 -54 13 0 37 14 54 30 l30 30 573 0 c421 0 574
-3 577 -11 6 -18 58 -21 58 -4 0 11 19 15 73 17 69 3 73 2 98 -27 38 -42 92
-40 134 7 28 30 35 33 88 32 l57 -1 -55 4 c-65 5 -76 27 -17 37 20 3 329 6
685 6 430 0 646 3 642 10 -4 6 -205 10 -571 10 -314 0 -564 4 -564 9 0 5 -23
12 -52 15 -28 4 -56 10 -62 13 -5 4 -34 5 -63 4 -30 -1 -53 2 -53 7 0 12 94
27 109 17 6 -3 38 -3 71 1 l60 7 -5 36 c-12 72 -15 82 -27 75 -7 -5 -9 -2 -5
8 8 21 -15 39 -83 66 -66 25 -128 40 -192 44 -27 2 -48 7 -48 11 0 5 -4 5 -10
2 -5 -3 -11 -1 -11 4 -1 6 -3 16 -4 21 -1 6 -3 28 -4 50 -1 40 -1 40 -41 40
l-40 0 0 -65 0 -65 -29 0 c-29 0 -29 0 -30 61 0 68 2 64 -27 73 -20 6 -21 3
-20 -64 l2 -70 -282 0 c-155 0 -295 3 -312 6 -23 5 -36 17 -56 53 -48 88 -39
86 -285 88 -119 1 -226 -2 -238 -7z m81 -16 c12 -5 16 -21 16 -70 l0 -64 -91
0 c-69 0 -88 3 -83 13 19 31 65 97 80 111 16 16 50 21 78 10z m266 -63 c0 -65
-1 -69 -25 -75 -13 -3 -63 -3 -110 0 l-85 7 0 31 c0 17 3 48 6 69 l7 37 103 0
104 0 0 -69z m88 60 c15 -9 31 -70 32 -114 0 -27 -2 -28 -42 -25 l-43 3 -3 59
c-2 32 -1 65 2 72 6 16 34 18 54 5z m-321 -43 c-3 -7 -5 -2 -5 12 0 14 2 19 5
13 2 -7 2 -19 0 -25z m1111 -318 c53 0 81 -4 77 -10 -8 -14 -1321 -14 -1330 0
-6 10 561 18 960 13 116 -1 247 -2 293 -3z m-108 -100 c0 -6 -56 -10 -147 -11
-82 0 -340 -2 -575 -4 -373 -4 -428 -3 -428 10 0 13 74 15 575 15 377 0 575
-3 575 -10z m180 0 c0 -6 -33 -10 -80 -10 -47 0 -80 4 -80 10 0 6 33 10 80 10
47 0 80 -4 80 -10z"/>
<path d="M3935 3733 c4 -9 -37 -13 -167 -16 -193 -4 -198 -5 -230 -34 -21 -20
-35 -22 -201 -24 -98 -1 -194 -6 -215 -9 -20 -4 -31 -8 -24 -9 6 0 12 -8 12
-16 0 -8 5 -15 10 -15 6 0 10 -8 10 -17 0 -15 2 -15 9 -4 5 8 7 21 3 29 -3 10
-1 13 6 8 8 -5 12 -40 12 -102 l0 -94 -44 0 c-44 0 -45 0 -49 38 -3 32 -4 31
-3 -8 l0 -45 -52 -3 c-37 -2 -52 -7 -52 -18 0 -9 11 -14 33 -15 17 -1 113 -5
212 -10 99 -5 196 -9 215 -9 542 11 573 11 589 -3 35 -30 101 -31 101 -1 0 11
32 14 175 14 100 0 175 4 175 9 0 5 3 16 6 25 5 14 -11 16 -132 18 -111 2
-119 3 -44 5 124 4 140 8 140 36 0 21 -4 22 -60 20 -33 -1 -60 3 -60 8 0 5
-10 9 -22 9 -13 0 -30 5 -38 10 -16 10 -14 11 35 14 11 1 20 5 20 11 0 13 -75
13 -76 0 -5 -65 -12 -76 -29 -46 -8 15 -8 21 0 21 20 0 6 45 -15 48 -18 3 -19
2 -2 -8 9 -6 15 -16 12 -21 -4 -5 -12 -6 -18 -2 -21 13 -92 2 -125 -20 -18
-12 -38 -34 -45 -49 l-12 -28 -242 0 c-239 0 -243 0 -243 21 0 17 2 18 14 7
10 -11 46 -13 157 -11 79 2 150 5 157 8 6 2 12 1 12 -3 0 -4 28 -8 63 -10 60
-2 63 -1 89 32 24 30 25 36 13 52 -8 11 -14 14 -15 7 0 -7 -11 -13 -25 -13
-20 0 -25 -5 -25 -25 0 -14 -5 -25 -11 -25 -7 0 -9 10 -5 25 8 31 -1 33 -14 3
-8 -19 -9 -17 -5 12 5 32 5 33 -9 17 -13 -16 -14 -14 -17 32 -3 35 0 51 8 51
7 0 10 -7 7 -15 -4 -8 -1 -15 5 -15 6 0 11 6 11 13 0 7 12 14 27 15 26 2 26 1
7 -13 -15 -11 -16 -15 -4 -15 10 -1 8 -4 -5 -9 -16 -7 -10 -10 28 -16 40 -6
52 -4 65 10 16 16 15 17 -12 11 -23 -6 -27 -4 -23 8 4 9 -1 17 -11 19 -9 3 4
5 31 6 53 1 61 15 20 34 -16 6 -47 32 -71 57 -24 25 -41 40 -37 33z m-295 -42
c0 -16 -49 -41 -82 -41 -32 1 -32 1 -13 16 11 8 19 18 18 22 -1 4 16 8 38 10
21 1 39 -2 39 -7z m320 -10 c0 -5 -11 -8 -24 -7 -13 0 -22 4 -19 9 6 10 43 9
43 -2z m-207 -8 c-7 -2 -19 -2 -25 0 -7 3 -2 5 12 5 14 0 19 -2 13 -5z m-299
-64 c-3 -6 5 -7 20 -3 16 4 26 2 26 -4 0 -20 -21 -24 -45 -8 -18 12 -46 16
-102 15 -43 -1 -67 -4 -53 -6 14 -3 30 -9 36 -14 7 -6 22 -6 38 1 35 13 66 13
66 0 0 -5 -15 -10 -34 -10 -19 0 -38 -5 -42 -11 -5 -8 6 -10 35 -7 53 5 54 -7
1 -16 -22 -3 -40 -11 -40 -16 0 -7 6 -7 18 -2 9 5 34 12 55 16 33 6 39 4 44
-13 3 -12 12 -18 22 -16 11 2 17 -4 17 -16 0 -24 -2 -24 -33 1 -37 29 -89 26
-142 -10 -48 -33 -62 -33 -35 -1 11 13 21 17 25 10 4 -7 8 -6 11 3 4 9 -4 14
-26 14 -17 1 -25 -1 -19 -3 10 -3 9 -8 -2 -20 -9 -8 -13 -23 -10 -34 6 -17 4
-17 -22 -4 -15 8 -36 15 -45 15 -10 0 -18 5 -18 11 0 7 8 18 18 25 16 12 15
13 -5 14 -20 0 -23 5 -23 43 0 30 3 38 10 27 7 -12 12 -12 22 -2 6 6 21 13 33
14 11 0 -2 4 -30 8 -34 5 -5 7 92 8 87 0 141 -4 137 -9z m127 -29 c4 -14 7
-41 8 -60 0 -26 -2 -31 -9 -20 -5 8 -10 32 -10 52 0 43 -17 60 -22 21 -3 -29
-28 -45 -28 -18 0 9 5 13 10 10 6 -3 10 2 10 13 0 39 31 41 41 2z m40 -12 c-3
-27 -6 -34 -9 -20 -2 12 -8 22 -13 22 -5 0 -9 7 -9 16 0 8 5 12 10 9 6 -3 10
-1 10 4 0 6 3 11 8 11 4 0 5 -19 3 -42z m49 3 c0 -20 -6 -30 -20 -34 -16 -4
-20 0 -20 19 0 26 20 55 33 47 4 -2 7 -17 7 -32z m208 -16 c2 -36 0 -46 -8
-35 -5 8 -10 31 -11 50 -2 33 -2 33 -12 -13 l-11 -49 -45 6 c-91 11 -86 8 -83
46 2 19 6 38 8 41 2 4 39 6 81 5 l78 -1 3 -50z m-218 -50 c0 -8 -4 -15 -10
-15 -5 0 -7 7 -4 15 4 8 8 15 10 15 2 0 4 -7 4 -15z m150 -19 c0 -11 -19 -15
-25 -6 -3 5 1 10 9 10 9 0 16 -2 16 -4z m-366 -26 c14 -5 26 -15 26 -22 0 -9
-3 -9 -12 0 -18 18 -56 14 -78 -8 -15 -15 -20 -16 -20 -6 0 14 36 46 52 46 3
0 18 -4 32 -10z m676 -19 c14 -27 -6 -38 -29 -17 -10 9 -28 16 -40 16 -12 0
-19 4 -16 10 11 18 73 12 85 -9z m-800 5 c0 -3 -4 -8 -10 -11 -5 -3 -10 -1
-10 4 0 6 5 11 10 11 6 0 10 -2 10 -4z m-62 -13 c-10 -2 -28 -2 -40 0 -13 2
-5 4 17 4 22 1 32 -1 23 -4z"/>
<path d="M3720 3565 c0 -8 7 -15 15 -15 8 0 15 7 15 15 0 8 -7 15 -15 15 -8 0
-15 -7 -15 -15z"/>
<path d="M3075 3620 c-3 -5 -1 -10 4 -10 6 0 11 5 11 10 0 6 -2 10 -4 10 -3 0
-8 -4 -11 -10z"/>
<path d="M3071 3584 c0 -11 3 -14 6 -6 3 7 2 16 -1 19 -3 4 -6 -2 -5 -13z"/>
<path d="M4204 3575 c8 -8 18 -15 22 -15 3 0 1 7 -6 15 -7 8 -17 15 -22 15 -5
0 -3 -7 6 -15z"/>
<path d="M4067 3555 c-20 -14 -37 -30 -37 -35 0 -14 28 -1 34 16 3 8 20 21 38
29 18 8 26 14 18 15 -9 0 -32 -11 -53 -25z"/>
<path d="M4250 3560 c0 -5 4 -10 9 -10 6 0 13 5 16 10 3 6 -1 10 -9 10 -9 0
-16 -4 -16 -10z"/>
<path d="M4115 3550 c-3 -5 -2 -10 4 -10 5 0 13 5 16 10 3 6 2 10 -4 10 -5 0
-13 -4 -16 -10z"/>
<path d="M3131 3524 c0 -11 3 -14 6 -6 3 7 2 16 -1 19 -3 4 -6 -2 -5 -13z"/>
<path d="M3131 3484 c0 -11 3 -14 6 -6 3 7 2 16 -1 19 -3 4 -6 -2 -5 -13z"/>
<path d="M4440 3465 c0 -14 5 -25 10 -25 6 0 10 11 10 25 0 14 -4 25 -10 25
-5 0 -10 -11 -10 -25z"/>
<path d="M4115 3311 c-26 -11 89 -21 233 -21 68 0 112 4 112 10 0 6 -56 10
-149 10 -82 0 -155 2 -163 4 -7 3 -22 1 -33 -3z"/>
<path d="M2684 3120 c-60 -9 -173 -68 -226 -118 -31 -29 -41 -33 -65 -28 -82
21 -643 40 -660 22 -4 -3 5 -6 19 -6 18 0 27 -7 31 -21 5 -18 11 -20 44 -15
27 4 34 3 23 -4 -8 -5 -87 -10 -175 -10 -117 0 -156 -3 -145 -11 13 -9 13 -10
-2 -6 -9 3 -122 7 -252 8 -224 2 -238 2 -256 -17 -12 -12 -21 -36 -23 -59 l-2
-40 61 -3 61 -3 -1 28 -1 28 363 3 362 2 0 -29 c0 -33 22 -46 51 -30 14 7 24
7 33 0 9 -7 16 -7 24 1 18 18 15 38 -10 75 l-23 32 -120 3 c-66 2 36 3 228 3
285 0 346 -2 342 -13 -3 -8 -5 -20 -5 -27 0 -7 -8 -16 -17 -18 -10 -3 414 -4
942 -4 528 0 936 2 908 4 l-53 4 0 100 c0 102 -7 132 -35 143 -13 4 -14 2 -5
-14 5 -10 10 -64 10 -119 l0 -101 -590 0 c-465 0 -590 3 -590 13 0 7 -3 8 -8
2 -14 -19 -40 -13 -45 11 -2 13 0 24 4 24 5 0 9 -7 9 -16 0 -8 5 -12 10 -9 6
4 10 53 10 116 l0 109 -87 -1 c-49 -1 -111 -5 -139 -9z m-122 -115 c-4 -34 -5
-35 -48 -35 -24 0 -44 4 -44 8 0 23 50 61 80 62 12 0 15 -8 12 -35z m168 -6
c0 -27 -3 -29 -41 -29 -40 0 -40 0 -35 33 2 17 5 32 5 32 1 1 17 -1 36 -3 31
-4 35 -8 35 -33z m-98 1 c4 -26 1 -30 -19 -30 -19 0 -23 5 -23 30 0 23 5 30
19 30 13 0 20 -9 23 -30z m198 5 c0 -18 -5 -25 -20 -25 -18 0 -21 13 -11 48 1
1 8 2 16 2 9 0 15 -9 15 -25z m34 -92 c6 -15 -15 -43 -33 -43 -6 0 -11 15 -11
34 0 29 3 33 19 29 11 -3 22 -12 25 -20z m-1281 10 c-7 -2 -19 -2 -25 0 -7 3
-2 5 12 5 14 0 19 -2 13 -5z m80 0 c-7 -2 -21 -2 -30 0 -10 3 -4 5 12 5 17 0
24 -2 18 -5z"/>
<path d="M3410 3110 c0 -5 5 -10 10 -10 6 0 10 5 10 10 0 6 -4 10 -10 10 -5 0
-10 -4 -10 -10z"/>
<path d="M3483 3113 c9 -2 25 -2 35 0 9 3 1 5 -18 5 -19 0 -27 -2 -17 -5z"/>
<path d="M3613 3113 c45 -3 57 -8 58 -21 0 -14 2 -14 6 -2 3 8 11 18 17 22 6
4 -23 7 -64 6 -69 -2 -71 -2 -17 -5z"/>
<path d="M3728 3113 c6 -2 18 -2 25 0 6 3 1 5 -13 5 -14 0 -19 -2 -12 -5z"/>
<path d="M3811 3038 c2 -86 6 -76 11 25 2 31 0 57 -4 57 -5 0 -7 -37 -7 -82z"/>
<path d="M3888 3113 c12 -2 30 -2 40 0 9 3 -1 5 -23 4 -22 0 -30 -2 -17 -4z"/>
<path d="M3965 3110 c4 -6 11 -8 16 -5 14 9 11 15 -7 15 -8 0 -12 -5 -9 -10z"/>
<path d="M1508 3066 c-10 -11 -20 -28 -24 -38 -4 -12 -15 -18 -36 -18 -38 0
-29 -13 9 -14 19 -1 28 -7 29 -19 1 -12 1 -13 -3 -2 -6 21 -33 19 -34 -2 0
-11 -3 -13 -6 -5 -6 16 -31 15 -49 -3 -13 -13 -6 -14 63 -12 70 2 78 4 79 22
0 11 -4 26 -9 33 -6 8 -5 12 3 12 7 0 10 8 7 20 -5 19 0 20 114 20 117 0 119
0 119 -22 0 -17 3 -19 9 -9 5 7 8 21 6 30 -1 13 -22 17 -130 21 -118 5 -130 3
-147 -14z"/>
<path d="M3673 3015 c0 -33 2 -45 4 -27 2 18 2 45 0 60 -2 15 -4 0 -4 -33z"/>
<path d="M3279 3048 c-6 -14 -3 -88 3 -88 4 0 8 20 8 45 0 25 -2 45 -5 45 -3
0 -5 -1 -6 -2z"/>
<path d="M1170 2979 c66 -12 199 -14 208 -3 4 4 -1 4 -10 1 -10 -3 -19 -3 -22
1 -3 5 -56 9 -118 9 -101 1 -107 0 -58 -8z"/>
<path d="M1208 2943 c6 -2 18 -2 25 0 6 3 1 5 -13 5 -14 0 -19 -2 -12 -5z"/>
<path d="M2298 2853 c7 -3 16 -2 19 1 4 3 -2 6 -13 5 -11 0 -14 -3 -6 -6z"/>
<path d="M2353 2840 c-83 -4 -107 -9 -130 -26 -44 -33 -41 -49 18 -70 93 -34
76 -44 -70 -44 -117 0 -151 -7 -123 -24 5 -3 71 -6 148 -6 197 -2 222 -6 240
-42 28 -54 50 -68 105 -68 28 0 60 5 72 11 29 15 56 50 57 72 0 9 1 17 3 18
12 5 1414 7 1422 1 6 -4 17 -20 25 -36 23 -45 63 -69 115 -70 41 -1 50 3 81
36 19 21 34 47 34 58 0 18 6 20 69 20 65 0 81 7 81 35 0 2 -30 6 -67 8 l-68 3
68 2 67 2 0 60 0 60 -107 0 c-60 0 -520 1 -1023 3 -503 1 -961 0 -1017 -3z
m354 -6 c-3 -3 -12 -4 -19 -1 -8 3 -5 6 6 6 11 1 17 -2 13 -5z m-106 -202
c-10 -19 -40 -37 -48 -28 -3 2 5 7 16 11 11 3 23 15 26 26 4 11 9 18 12 16 2
-3 0 -14 -6 -25z m1646 -18 c-3 -3 -12 -4 -19 -1 -8 3 -5 6 6 6 11 1 17 -2 13
-5z"/>
<path d="M1190 2670 c-10 -19 -21 -20 -168 -20 -163 0 -182 -4 -182 -42 0 -13
-8 -18 -29 -18 -49 0 -90 -20 -112 -56 -26 -43 -18 -56 16 -24 30 28 34 25 28
-17 -5 -31 -7 -32 -62 -35 -55 -3 -56 -3 -59 -35 l-3 -33 70 0 c54 0 71 -3 71
-14 0 -21 33 -30 46 -12 10 14 57 16 368 16 346 0 357 -1 377 -21 26 -26 70
-22 84 9 8 17 18 22 46 22 20 0 51 3 68 6 28 6 31 10 31 45 0 35 -3 39 -25 39
-24 0 -25 3 -25 55 l0 55 -65 0 -65 0 0 33 0 32 -151 -3 c-143 -3 -152 -2
-166 17 -8 12 -19 21 -25 21 -7 0 -3 -6 8 -14 26 -20 14 -28 -37 -24 -41 3
-42 4 -25 21 10 9 13 17 7 17 -6 0 -15 -9 -21 -20z m-233 -72 c-3 -8 -6 -5 -6
6 -1 11 2 17 5 13 3 -3 4 -12 1 -19z m500 0 c-3 -8 -6 -5 -6 6 -1 11 2 17 5
13 3 -3 4 -12 1 -19z m123 7 c0 -11 -11 -15 -41 -15 -36 0 -40 2 -29 15 7 8
25 15 41 15 19 0 29 -5 29 -15z m-577 -2 c-7 -2 -19 -2 -25 0 -7 3 -2 5 12 5
14 0 19 -2 13 -5z m357 -9 c0 -12 -9 -14 -42 -12 -59 4 -63 28 -4 28 35 0 46
-4 46 -16z m-465 -4 c8 -13 -5 -13 -25 0 -13 8 -13 10 2 10 9 0 20 -4 23 -10z
m3 -54 c2 -29 -1 -34 -23 -38 -21 -4 -25 -1 -25 18 0 15 6 24 16 24 8 0 13 4
10 9 -4 5 0 12 6 14 7 3 13 6 13 6 1 1 2 -14 3 -33z m-93 -46 c0 -31 -3 -35
-28 -38 -28 -3 -29 -2 -22 30 10 44 14 50 33 46 12 -2 17 -14 17 -38z"/>
<path d="M1528 2603 c6 -2 18 -2 25 0 6 3 1 5 -13 5 -14 0 -19 -2 -12 -5z"/>
<path d="M3730 2541 l0 -91 35 0 36 0 -3 88 -3 87 -32 3 -33 3 0 -90z"/>
<path d="M2980 2520 l-65 -7 70 -2 c39 -2 86 -3 105 -3 19 1 27 -2 18 -4 -10
-3 -18 -14 -18 -24 0 -22 -27 -28 -87 -19 -27 3 -44 2 -47 -5 -2 -6 -5 -4 -5
4 -1 13 -44 15 -328 15 -311 0 -342 -3 -343 -28 0 -14 53 -29 60 -17 9 14 92
15 850 9 360 -3 606 -2 545 2 -60 3 -140 7 -177 8 -66 1 -68 2 -68 27 0 14 -4
23 -9 19 -6 -3 -8 -14 -6 -25 2 -11 0 -20 -6 -20 -17 0 -10 58 9 63 9 3 -75 5
-188 6 -113 1 -214 3 -225 5 -11 1 -49 0 -85 -4z m468 -40 c-2 -28 -18 -44
-18 -17 0 8 -4 7 -10 -3 -8 -13 -10 -12 -11 5 -1 17 -2 17 -6 3 -7 -29 -33
-21 -34 10 l-2 27 -4 -27 c-4 -25 -7 -27 -24 -17 -11 6 -67 11 -125 11 -57 0
-107 4 -110 9 -9 16 31 20 254 27 l92 3 -2 -31z"/>
<path d="M4224 2450 c-17 -4 -42 -14 -54 -23 -14 -10 -33 -14 -47 -11 -20 5
-23 2 -23 -19 0 -23 -5 -27 -45 -33 -59 -8 -58 -24 3 -25 76 -1 406 2 408 4 1
1 -1 17 -3 35 -4 26 -10 32 -30 32 -14 0 -33 10 -43 22 -14 18 -29 22 -76 23
-33 1 -73 -2 -90 -5z m147 -21 c21 -34 11 -47 -36 -47 -32 0 -45 4 -45 14 0 8
11 15 28 15 26 2 26 2 2 6 -47 8 -57 15 -31 22 38 10 72 6 82 -10z m-111 -19
c0 -30 -1 -30 -52 -30 -29 0 -60 5 -68 11 -12 9 -11 10 7 6 13 -3 26 -1 29 4
3 5 20 9 37 9 l32 1 -25 14 -25 14 33 1 c29 0 32 -3 32 -30z m175 -30 c-3 -5
-14 -10 -23 -9 -14 0 -13 2 3 9 27 11 27 11 20 0z"/>
<path d="M2415 2410 c-192 -3 -351 -7 -351 -8 -1 -1 -5 -9 -8 -18 -5 -14 -4
-15 8 -5 10 8 39 11 85 8 41 -2 75 1 81 7 7 7 10 -3 10 -32 l0 -42 748 1 c411
0 738 4 727 9 -11 4 -285 8 -610 9 -324 1 -591 4 -594 6 -2 3 264 5 592 5 524
0 597 2 597 15 0 12 14 15 69 15 62 0 93 11 78 27 -8 7 -1001 9 -1432 3z"/>
<path d="M3865 2410 c-3 -5 3 -10 15 -10 12 0 18 5 15 10 -3 6 -10 10 -15 10
-5 0 -12 -4 -15 -10z"/>
<path d="M630 2360 c0 -5 24 -10 54 -10 30 0 58 5 61 10 4 6 -17 10 -54 10
-34 0 -61 -4 -61 -10z"/>
<path d="M840 2360 c21 -13 677 -13 685 0 4 7 -109 10 -347 10 -223 0 -348 -4
-338 -10z"/>
<path d="M3904 2209 c3 -17 6 -83 6 -145 l0 -114 35 0 35 0 0 125 c0 112 -2
127 -20 145 -11 11 -30 20 -41 20 -19 0 -21 -4 -15 -31z"/>
<path d="M1670 2195 c-25 -26 -36 -32 -42 -22 -6 8 -8 7 -6 -5 2 -10 -30 -53
-78 -105 -44 -48 -86 -97 -92 -109 -6 -12 -13 -52 -16 -90 l-5 -69 9 55 c6 30
12 66 15 79 3 13 38 58 78 100 106 113 177 194 174 198 -2 1 -19 -13 -37 -32z"/>
<path d="M1798 2223 c23 -2 59 -2 80 0 20 2 1 4 -43 4 -44 0 -61 -2 -37 -4z"/>
<path d="M2070 2211 c-5 -11 -10 -23 -10 -26 0 -4 93 -5 208 -4 114 2 251 2
304 1 l97 -2 4 -117 3 -118 3 140 c2 77 6 131 8 120 4 -19 12 -20 298 -20 189
0 295 4 296 10 1 6 1 13 0 18 0 4 4 7 9 7 6 0 10 -8 10 -17 0 -17 20 -18 292
-16 287 2 293 2 296 22 l3 21 -905 0 c-885 0 -906 0 -916 -19z"/>
<path d="M1920 2216 c0 -2 9 -6 20 -9 11 -3 18 -1 14 4 -5 9 -34 13 -34 5z"/>
<path d="M1982 1873 l-2 -333 -139 0 -138 0 -6 45 c-19 134 -105 197 -271 198
-125 1 -204 -36 -241 -111 -19 -40 -22 -42 -62 -42 -41 0 -43 -1 -43 -30 l0
-30 -70 0 c-64 0 -70 -2 -70 -21 0 -11 5 -29 10 -40 10 -17 22 -19 119 -19 59
0 111 -3 115 -7 4 -4 23 -6 42 -4 26 2 34 -1 34 -13 0 -14 -32 -16 -285 -16
-188 0 -285 -3 -285 -10 0 -7 95 -9 289 -5 286 6 289 6 296 -15 9 -30 53 -79
86 -95 36 -19 122 -19 157 -1 38 20 68 54 90 104 16 36 20 40 25 23 5 -21 7
-21 665 -21 l660 0 26 -35 c32 -42 74 -65 117 -65 26 0 42 10 79 49 43 46 50
50 100 52 48 3 54 1 62 -22 15 -39 69 -89 111 -100 74 -20 161 20 197 90 18
37 22 39 54 34 19 -3 60 -2 90 1 51 7 56 10 56 32 l0 24 183 0 c100 0 187 4
193 8 11 7 18 32 15 60 -1 8 -21 12 -66 12 l-65 0 0 41 0 42 -46 -7 c-26 -3
-55 -6 -65 -6 -15 0 -19 -8 -19 -40 l0 -40 -82 -2 c-46 -1 -100 -2 -121 -3
-30 0 -37 -4 -38 -20 0 -11 -9 3 -19 32 -36 100 -92 148 -190 160 -110 13
-214 -45 -241 -135 l-12 -40 -643 -1 -644 -1 -3 327 -2 328 -3 -332z m-395
-131 c52 -27 91 -90 98 -158 6 -51 1 -46 -25 24 -34 90 -97 126 -225 126 -139
1 -202 -37 -239 -141 -21 -58 -32 -16 -12 45 34 100 99 133 256 129 85 -2 113
-7 147 -25z m-440 -168 c-3 -3 -12 -4 -19 -1 -8 3 -5 6 6 6 11 1 17 -2 13 -5z
m298 -21 c-16 -3 -40 -14 -52 -26 -64 -59 22 -150 91 -96 18 15 27 17 24 8 -8
-23 -52 -43 -80 -36 -73 19 -96 89 -44 134 18 15 38 22 59 22 l32 -2 -30 -4z
m2165 -41 c21 -80 -26 -148 -107 -157 l-38 -5 34 9 c58 15 80 33 96 76 14 36
15 46 2 83 -8 23 -11 39 -6 36 5 -2 13 -22 19 -42z m-57 6 c33 -44 -2 -118
-56 -118 -33 0 -70 43 -70 81 0 67 85 92 126 37z m-2055 -8 c4 -12 2 -13 -9
-2 -7 6 -25 12 -39 12 -14 0 -32 -6 -40 -12 -12 -11 -12 -10 0 5 16 22 81 20
88 -3z m62 -31 c0 -47 -52 -120 -85 -119 -5 1 2 7 17 15 36 20 63 90 48 130
-9 28 -9 29 5 11 8 -11 15 -27 15 -37z m-201 -81 c17 -15 40 -28 51 -28 10 0
22 -4 25 -10 9 -15 -4 -12 -50 10 -46 22 -76 65 -74 107 1 23 3 21 9 -11 5
-26 19 -50 39 -68z m82 85 c13 -16 12 -17 -3 -4 -10 7 -18 15 -18 17 0 8 8 3
21 -13z m1779 -8 c0 -13 -93 -15 -777 -15 -505 0 -774 3 -767 10 12 12 182 15
952 18 520 2 592 0 592 -13z m233 -114 c-4 -6 -53 41 -53 50 0 4 13 -4 28 -19
15 -15 26 -29 25 -31z"/>
<path d="M3457 1522 c-24 -26 -21 -67 5 -92 27 -25 43 -25 68 0 24 24 27 78 5
86 -8 4 -12 10 -9 15 10 17 -53 9 -69 -9z"/>
<path d="M1710 2088 c0 -57 -3 -113 -6 -125 -6 -23 -5 -23 99 -23 86 0 106 3
111 16 11 30 7 209 -6 222 -8 8 -46 12 -105 12 l-93 0 0 -102z"/>
<path d="M3268 2063 l-2 -108 -3 103 -4 102 -133 0 -133 0 -7 -61 c-3 -34 -6
-82 -6 -105 l0 -44 150 0 150 0 0 110 c0 61 -2 110 -5 110 -3 0 -6 -48 -7
-107z"/>
<path d="M703 2153 c-28 -2 -56 -9 -61 -16 -9 -10 -17 -97 -13 -134 2 -21 78
-28 213 -21 71 4 133 9 136 12 13 14 -15 20 -100 23 -125 3 -124 13 1 13 94 0
103 -2 108 -20 5 -19 15 -20 137 -22 158 -3 249 1 257 10 3 4 3 35 1 70 -3 55
-6 62 -25 63 -21 0 -21 1 -2 8 16 7 14 9 -14 14 -46 10 -122 7 -146 -4 -14 -6
2 -8 52 -7 39 2 75 -1 79 -5 4 -4 -27 -7 -69 -7 -60 0 -75 -3 -71 -13 4 -11
-21 -15 -117 -20 -67 -4 -151 -7 -186 -7 -55 0 -63 2 -63 19 0 37 -11 51 -39
49 -14 -1 -49 -3 -78 -5z m37 -92 c0 -5 -10 -7 -22 -4 -20 4 -21 3 -5 -7 25
-16 21 -30 -8 -30 -26 0 -29 7 -19 34 6 17 54 23 54 7z m497 -26 c-4 -9 -17
-15 -34 -14 l-28 1 30 8 c17 4 23 8 15 9 -13 1 -13 2 0 11 18 11 24 6 17 -15z
m91 18 c-18 -3 -28 -12 -31 -26 -4 -18 -5 -17 -6 6 -1 24 2 27 32 26 29 -2 29
-2 5 -6z m-188 -13 c0 -5 -20 -10 -45 -10 -25 0 -45 5 -45 10 0 6 20 10 45 10
25 0 45 -4 45 -10z m203 -7 c-7 -2 -19 -2 -25 0 -7 3 -2 5 12 5 14 0 19 -2 13
-5z m2 -23 c-3 -5 -13 -10 -21 -10 -8 0 -12 5 -9 10 3 6 13 10 21 10 8 0 12
-4 9 -10z"/>
<path d="M690 2040 c0 -6 7 -10 15 -10 8 0 15 2 15 4 0 2 -7 6 -15 10 -8 3
-15 1 -15 -4z"/>
<path d="M2076 2144 c-3 -9 -6 -56 -6 -105 l0 -89 155 0 155 0 0 105 0 105
-149 0 c-127 0 -150 -2 -155 -16z"/>
<path d="M2400 2055 l0 -105 124 0 124 0 4 88 c6 131 16 122 -128 122 l-124 0
0 -105z"/>
<path d="M2696 2144 c-3 -8 -6 -56 -6 -105 l0 -89 140 0 141 0 -3 103 -3 102
-131 3 c-113 2 -132 0 -138 -14z"/>
<path d="M3300 2055 l0 -105 141 0 142 0 -7 38 c-3 20 -6 67 -6 105 l0 67
-135 0 -135 0 0 -105z"/>
<path d="M3596 2099 c-3 -34 -6 -82 -6 -105 l0 -44 145 0 145 0 -2 108 -2 107
-6 -95 -6 -95 -2 93 -2 92 -129 0 -128 0 -7 -61z"/>
<path d="M863 2143 c9 -2 17 -10 17 -16 0 -9 2 -9 8 0 4 6 34 14 67 16 47 2
41 3 -25 4 -47 0 -77 -1 -67 -4z"/>
<path d="M1662 2125 c-1 -5 -31 -39 -67 -75 -35 -36 -65 -70 -65 -77 0 -17 27
-29 83 -37 58 -9 59 -7 54 110 -1 49 -4 85 -5 79z"/>
<path d="M4110 2050 c0 -6 37 -10 90 -10 77 0 89 -2 83 -16 -3 -9 -15 -14 -32
-12 -14 1 -32 -2 -40 -6 -9 -6 -18 -3 -27 8 -8 11 -14 13 -19 7 -3 -6 -17 -11
-31 -11 -22 0 -24 -4 -24 -51 l0 -50 179 3 c174 3 211 9 181 29 -11 6 -12 11
-3 17 6 4 13 20 15 36 3 25 -1 29 -22 31 -14 1 -28 -2 -31 -7 -4 -6 -9 2 -13
16 l-6 26 -150 0 c-93 0 -150 -4 -150 -10z m300 -26 c0 -22 -104 -15 -108 6
-2 12 8 14 53 12 40 -3 55 -8 55 -18z"/>
<path d="M3895 1901 c-3 -2 -5 -55 -5 -118 l0 -113 45 0 45 0 0 119 0 120 -40
-2 c-23 -1 -43 -3 -45 -6z"/>
<path d="M4120 1873 c0 -5 81 -9 180 -9 99 -1 180 3 180 7 0 5 -81 9 -180 9
-99 0 -180 -3 -180 -7z"/>
<path d="M4080 1843 c-8 -3 -23 -12 -32 -20 -16 -14 -15 -17 11 -39 41 -34 51
-30 51 21 0 45 -2 48 -30 38z"/>
<path d="M3581 1824 c0 -11 3 -14 6 -6 3 7 2 16 -1 19 -3 4 -6 -2 -5 -13z"/>
<path d="M2098 1818 c-3 -7 -2 -22 3 -33 6 -17 8 -16 9 10 2 18 4 23 7 13 5
-21 73 -26 73 -5 0 8 4 7 10 -3 9 -13 10 -13 10 0 0 13 2 13 9 1 8 -12 11 -12
25 1 14 14 12 16 -20 20 -22 3 -42 -1 -49 -9 -8 -7 -15 -9 -17 -4 -6 17 -55
24 -60 9z"/>
<path d="M2270 1816 c0 -8 -6 -17 -12 -19 -8 -3 -6 -6 5 -6 11 -1 17 6 17 19
0 11 -2 20 -5 20 -3 0 -5 -6 -5 -14z"/>
<path d="M2326 1814 c-8 -21 -8 -21 12 -26 18 -5 49 19 38 29 -3 4 -6 3 -6 -1
0 -4 -9 -2 -19 3 -15 8 -20 7 -25 -5z"/>
<path d="M2296 1805 c-3 -8 -1 -15 3 -15 5 0 11 7 15 15 3 8 1 15 -3 15 -5 0
-11 -7 -15 -15z"/>
<path d="M2393 1805 c0 -8 4 -15 9 -15 4 0 8 7 8 15 0 8 -4 15 -8 15 -5 0 -9
-7 -9 -15z"/>
<path d="M1070 1784 c0 -21 4 -25 23 -22 14 2 23 11 25 26 3 18 -1 22 -22 22
-21 0 -26 -5 -26 -26z m37 -6 c-3 -8 -6 -5 -6 6 -1 11 2 17 5 13 3 -3 4 -12 1
-19z"/>
<path d="M1773 1766 c3 -8 147 -9 155 -1 2 2 -33 5 -77 7 -46 2 -80 -1 -78 -6z"/>
<path d="M2268 1773 c6 -2 18 -2 25 0 6 3 1 5 -13 5 -14 0 -19 -2 -12 -5z"/>
<path d="M2081 1716 c-7 -8 -11 -30 -9 -48 l3 -33 98 -3 c82 -2 97 0 97 13 0
12 -13 15 -59 15 l-60 0 -3 33 c-2 26 -8 33 -29 35 -14 2 -31 -4 -38 -12z"/>
<path d="M3640 1716 c0 -2 8 -10 18 -17 15 -13 16 -12 3 4 -13 16 -21 21 -21
13z"/>
<path d="M1820 1670 c0 -13 7 -20 20 -20 13 0 20 7 20 20 0 13 -7 20 -20 20
-13 0 -20 -7 -20 -20z m30 6 c0 -3 -4 -8 -10 -11 -5 -3 -10 -1 -10 4 0 6 5 11
10 11 6 0 10 -2 10 -4z"/>
<path d="M3731 1584 c0 -11 3 -14 6 -6 3 7 2 16 -1 19 -3 4 -6 -2 -5 -13z"/>
<path d="M3861 1445 c7 -7 570 -7 577 -1 3 4 -127 6 -288 6 -161 0 -291 -2
-289 -5z"/>
<path d="M868 1383 c61 -2 163 -2 225 0 61 1 11 3 -113 3 -124 0 -174 -2 -112
-3z"/>
<path d="M1973 1383 c180 -2 474 -2 655 0 180 1 32 2 -328 2 -360 0 -508 -1
-327 -2z"/>
<path d="M3253 1383 c9 -2 23 -2 30 0 6 3 -1 5 -18 5 -16 0 -22 -2 -12 -5z"/>
<path d="M3873 1383 c86 -2 228 -2 315 0 86 1 15 3 -158 3 -173 0 -244 -2
-157 -3z"/>
<path d="M670 1105 l0 -115 1895 0 1895 0 0 115 0 115 -1895 0 -1895 0 0 -115z
m1840 0 c0 -8 -4 -15 -10 -15 -5 0 -10 7 -10 15 0 8 5 15 10 15 6 0 10 -7 10
-15z m47 -7 c-3 -8 -6 -5 -6 6 -1 11 2 17 5 13 3 -3 4 -12 1 -19z m64 0 c0
-10 2 -10 6 0 2 6 10 12 16 12 6 0 4 -7 -5 -16 -16 -16 -38 -12 -38 7 0 14 20
11 21 -3z m1515 -10 c3 -4 -34 -8 -83 -7 -60 0 -82 3 -68 9 25 11 144 10 151
-2z m-436 -2 c0 -2 -18 -6 -40 -8 -22 -2 -40 0 -40 4 0 5 18 8 40 8 22 0 40
-2 40 -4z m103 -3 c-7 -2 -19 -2 -25 0 -7 3 -2 5 12 5 14 0 19 -2 13 -5z m110
0 c-7 -2 -21 -2 -30 0 -10 3 -4 5 12 5 17 0 24 -2 18 -5z"/>
</g>
</svg>
