<?xml version="1.0" standalone="no"?>
<!DOCTYPE svg PUBLIC "-//W3C//DTD SVG 20010904//EN"
 "http://www.w3.org/TR/2001/REC-SVG-20010904/DTD/svg10.dtd">
<svg version="1.0" xmlns="http://www.w3.org/2000/svg"
 width="512.000000pt" height="768.000000pt" viewBox="0 0 512.000000 768.000000"
 preserveAspectRatio="xMidYMid meet">

<g transform="translate(0.000000,768.000000) scale(0.100000,-0.100000)"
fill="#000000" stroke="none">
<path d="M0 3840 l0 -3840 2560 0 2560 0 0 3840 0 3840 -2560 0 -2560 0 0
-3840z m1489 2801 c16 -28 -14 -51 -36 -28 -13 13 -14 19 -3 31 17 21 27 20
39 -3z m684 -72 c47 -21 49 -37 45 -447 -1 -211 -5 -388 -8 -392 -3 -5 -15
-13 -27 -17 -12 -4 -344 -6 -738 -3 -695 5 -717 6 -731 24 -11 16 -14 89 -14
412 l0 393 26 20 c26 21 34 21 725 21 490 0 705 -3 722 -11z m1094 -195 c40
-20 113 -44 163 -53 49 -10 97 -24 105 -31 30 -25 64 -115 71 -187 4 -40 10
-73 14 -73 4 0 15 18 25 40 23 50 51 80 75 80 25 0 50 -48 50 -95 0 -72 -69
-162 -116 -151 -17 5 -23 -1 -34 -35 -8 -23 -27 -62 -44 -88 -27 -42 -29 -54
-29 -127 1 -55 6 -93 18 -118 10 -20 15 -45 12 -56 -3 -10 -74 -144 -158 -296
-117 -212 -155 -272 -161 -258 -14 38 -57 331 -58 404 -2 117 -2 118 14 97 12
-15 13 -11 9 30 -3 27 -6 52 -7 56 -1 5 -25 10 -54 11 -65 4 -76 13 -159 138
-89 134 -103 179 -103 328 0 100 2 120 15 120 8 0 15 -8 15 -17 0 -15 1 -15
14 2 15 21 46 14 46 -10 0 -9 9 -15 24 -15 38 0 43 20 11 48 -25 21 -35 24
-82 18 l-53 -6 0 29 c0 41 39 49 109 22 48 -18 51 -18 51 -1 0 32 -90 56 -131
35 l-27 -15 10 38 c26 94 73 160 161 226 l47 35 42 -45 c26 -28 69 -58 115
-80z m1134 -611 c10 -12 15 -60 17 -186 3 -134 7 -173 18 -185 8 -8 14 -26 12
-41 -2 -15 4 -33 15 -43 9 -10 17 -29 17 -41 0 -13 9 -32 20 -42 11 -10 20
-26 20 -36 0 -10 7 -33 16 -52 15 -32 15 -36 -11 -87 -15 -29 -43 -77 -62
-107 l-36 -53 9 -227 c5 -126 9 -300 9 -388 0 -151 -1 -163 -25 -209 -30 -60
-74 -86 -143 -86 -92 0 -155 65 -164 167 -5 62 9 125 80 353 68 220 93 400 64
457 -32 61 -67 93 -102 93 -59 0 -74 23 -81 127 -5 63 -11 94 -20 97 -18 7
-19 103 -1 109 9 3 11 44 8 176 -4 234 -15 221 178 221 126 0 151 -3 162 -17z
m-2178 -133 c68 -64 47 -65 -24 0 -30 27 -48 49 -41 50 8 0 37 -22 65 -50z
m-778 -142 c2 -7 6 -34 10 -59 3 -26 13 -55 21 -65 9 -11 12 -13 9 -6 -10 20
5 122 17 122 29 0 45 -31 40 -75 -3 -35 1 -57 22 -100 15 -30 32 -55 37 -55 5
0 32 -15 61 -33 29 -19 68 -39 85 -45 30 -10 34 -9 55 21 14 20 22 45 22 68
-1 34 1 37 20 29 17 -6 21 -16 22 -51 0 -27 9 -57 21 -78 13 -21 24 -60 28
-103 7 -68 22 -107 118 -318 48 -105 158 -303 228 -412 86 -131 102 -173 90
-228 -25 -110 -162 -187 -233 -130 -30 23 -85 133 -128 255 -17 50 -67 230
-111 400 -44 171 -87 325 -96 343 -16 34 -81 88 -194 160 -37 24 -94 71 -126
105 -57 59 -61 67 -73 136 -9 50 -10 75 -3 79 6 4 13 17 17 30 8 24 34 30 41
10z m2258 -845 c-40 -2 -107 -2 -150 0 -43 1 -10 3 72 3 83 0 118 -2 78 -3z
m-483 -49 c0 -29 -24 -41 -45 -24 -19 16 -19 25 0 44 21 20 45 9 45 -20z m-15
-389 c0 -23 -5 -30 -19 -30 -28 0 -43 29 -26 50 21 25 45 14 45 -20z m-5 -350
c17 -20 5 -45 -20 -45 -11 0 -23 7 -26 15 -6 15 11 45 26 45 4 0 13 -7 20 -15z
m-365 -665 c481 -26 660 -75 810 -224 l72 -71 76 -235 c42 -129 88 -274 103
-322 19 -61 32 -89 45 -93 26 -8 34 -1 66 52 21 37 24 49 15 64 -19 29 -14 84
9 113 29 37 95 37 129 1 56 -59 10 -149 -72 -143 -38 2 -42 0 -64 -40 -13 -23
-24 -44 -24 -46 0 -2 25 -6 56 -9 123 -13 241 -97 295 -211 42 -89 52 -153 46
-301 -6 -155 -36 -277 -97 -394 -76 -147 -168 -240 -277 -281 -85 -32 -161
-39 -423 -40 l-235 0 2 105 2 105 -87 0 c-48 0 -91 -4 -97 -8 -5 -4 -10 -47
-10 -97 0 -70 3 -91 15 -97 8 -4 -280 -7 -640 -7 -360 1 -650 2 -645 5 6 2 8
41 5 101 l-5 98 -103 2 c-67 1 -113 7 -132 17 -17 8 -32 10 -36 5 -3 -5 -10
-9 -16 -9 -6 0 -5 7 3 18 11 14 11 15 -1 5 -8 -7 -15 -20 -16 -28 -2 -11 2
-12 16 -5 9 5 20 7 23 4 6 -7 34 -12 64 -13 21 -1 22 -6 25 -102 l3 -101 -280
4 c-317 5 -370 15 -462 85 -61 47 -63 48 -120 124 -101 134 -164 337 -165 534
-1 130 13 208 53 291 49 104 139 163 282 186 l75 12 -29 42 c-23 34 -36 43
-69 48 -44 7 -80 36 -80 64 1 15 2 14 12 -3 6 -11 18 -26 26 -32 17 -14 53
-18 51 -5 -1 4 -1 20 0 35 1 23 5 28 24 25 16 -2 21 -9 20 -26 -2 -13 1 -21 7
-17 18 11 11 58 -12 82 -28 30 -80 31 -109 2 -12 -12 -19 -15 -17 -8 3 8 19
22 36 32 27 16 37 17 67 7 22 -7 41 -23 50 -40 19 -36 19 -44 -1 -86 -15 -32
-15 -35 6 -69 12 -19 30 -40 40 -45 40 -21 49 -12 75 78 56 187 168 529 186
563 51 101 229 213 394 249 233 49 659 70 1040 50z"/>
<path d="M1456 6635 c-3 -9 0 -15 9 -15 16 0 20 16 6 24 -5 3 -11 -1 -15 -9z"/>
<path d="M965 6393 c-38 -10 -65 -36 -76 -72 -15 -52 -8 -388 9 -419 23 -41
71 -62 139 -62 51 0 66 4 91 25 31 26 36 40 47 133 l7 52 -56 0 -55 0 -3 -57
c-3 -57 -3 -58 -35 -61 l-32 -3 -3 164 c-4 206 -1 221 35 225 27 3 27 3 27
-60 l0 -63 55 3 55 4 0 58 c0 66 -23 104 -76 126 -33 14 -90 17 -129 7z"/>
<path d="M1262 6333 c-7 -32 -23 -141 -37 -243 -14 -102 -28 -197 -31 -212 -5
-25 -4 -26 50 -30 l56 -3 0 32 c0 51 9 63 46 63 33 0 33 -1 40 -50 l7 -51 48
2 c27 2 53 5 58 8 5 3 -8 120 -30 266 -21 143 -39 263 -39 268 0 4 -35 7 -79
7 l-78 0 -11 -57z m101 -160 c4 -38 7 -87 7 -110 0 -40 -2 -43 -26 -43 -26 0
-26 0 -20 63 13 127 18 157 25 157 5 0 11 -30 14 -67z"/>
<path d="M1536 6344 c-8 -60 -8 -228 0 -381 l7 -120 108 -2 109 -2 0 46 0 47
-50 -4 -50 -3 0 233 0 232 -59 0 -58 0 -7 -46z"/>
<path d="M1800 6116 l0 -273 113 1 112 1 0 39 0 39 -50 1 -50 1 -3 233 -2 232
-60 0 -60 0 0 -274z"/>
<path d="M3305 6233 c-67 -15 -85 -25 -85 -48 l0 -23 58 24 c60 25 131 31 163
14 32 -18 21 -1 -13 20 -31 19 -77 24 -123 13z"/>
<path d="M3298 6133 c-31 -12 -38 -20 -37 -42 l0 -26 16 23 c17 24 43 30 43
10 0 -27 17 -39 42 -33 19 5 24 12 21 26 -6 22 25 27 45 7 9 -9 12 -9 12 3 0
19 -51 49 -82 48 -12 0 -40 -7 -60 -16z"/>
<path d="M3685 6100 c-15 -17 -16 -24 -5 -50 7 -16 10 -37 6 -45 -4 -10 -2
-14 5 -9 7 4 8 23 4 50 -5 35 -3 45 9 50 9 3 16 10 16 15 0 15 -16 10 -35 -11z"/>
<path d="M3296 5775 c4 -8 8 -15 10 -15 2 0 4 7 4 15 0 8 -4 15 -10 15 -5 0
-7 -7 -4 -15z"/>
<path d="M3228 5773 c6 -2 18 -2 25 0 6 3 1 5 -13 5 -14 0 -19 -2 -12 -5z"/>
<path d="M3054 5755 c8 -8 16 -15 19 -15 2 0 4 7 4 15 0 8 -9 15 -19 15 -17 0
-18 -2 -4 -15z"/>
<path d="M3098 5763 c6 -2 18 -2 25 0 6 3 1 5 -13 5 -14 0 -19 -2 -12 -5z"/>
<path d="M3235 5750 c-13 -6 -15 -9 -5 -9 8 0 22 4 30 9 18 12 2 12 -25 0z"/>
<path d="M3297 5319 c7 -7 15 -10 18 -7 3 3 -2 9 -12 12 -14 6 -15 5 -6 -5z"/>
<path d="M3300 5271 c0 -6 5 -13 10 -16 6 -3 10 1 10 9 0 9 -4 16 -10 16 -5 0
-10 -4 -10 -9z"/>
<path d="M4193 5732 l-63 -3 0 -43 c0 -23 -3 -45 -6 -49 -12 -12 -4 -331 9
-339 7 -4 36 -8 65 -8 l53 0 -36 -36 c-19 -19 -33 -39 -30 -45 4 -5 27 -9 53
-9 44 0 48 2 70 40 12 22 37 56 54 75 38 44 31 55 -17 25 -19 -12 -42 -19 -50
-16 -26 10 -17 44 15 61 53 27 63 55 58 151 -4 75 -7 88 -28 104 l-23 17 22 6
c18 4 22 12 19 39 -3 33 -4 33 -53 33 -27 0 -78 -1 -112 -3z m74 -44 c-3 -7
-5 -2 -5 12 0 14 2 19 5 13 2 -7 2 -19 0 -25z"/>
<path d="M2050 3000 c-448 -26 -609 -64 -644 -150 -22 -55 -19 -63 5 -18 23
45 49 60 92 56 26 -2 38 -13 64 -50 39 -60 46 -117 42 -337 -5 -189 -5 -188
94 -120 68 46 183 89 236 88 33 0 32 -1 -19 -15 -60 -16 -167 -63 -203 -90
-21 -15 -19 -16 43 -10 214 20 408 27 744 27 l380 0 47 35 c26 19 51 34 55 34
5 0 22 7 37 15 42 22 147 37 214 32 58 -5 114 -22 169 -50 16 -8 39 -18 52
-21 19 -6 22 -4 22 18 0 15 -7 26 -17 29 -15 4 -15 5 -2 6 13 1 17 21 22 122
8 138 27 204 73 255 25 27 39 34 67 34 45 0 70 -25 97 -98 22 -58 119 -368
146 -465 9 -32 18 -56 21 -54 14 15 -170 577 -200 612 -41 47 -185 80 -467
106 -147 13 -980 20 -1170 9z m520 -140 c0 -18 7 -20 59 -20 82 0 91 -5 91
-51 l0 -39 -160 0 -160 0 0 34 c0 45 15 55 88 57 53 2 62 5 62 20 0 11 5 19
10 19 6 0 10 -9 10 -20z m-547 -387 c-7 -2 -21 -2 -30 0 -10 3 -4 5 12 5 17 0
24 -2 18 -5z m234 -9 c-3 -3 -12 -4 -19 -1 -8 3 -5 6 6 6 11 1 17 -2 13 -5z
m50 -10 c-3 -3 -12 -4 -19 -1 -8 3 -5 6 6 6 11 1 17 -2 13 -5z"/>
<path d="M1337 2653 c-25 -76 -59 -186 -76 -245 -17 -59 -34 -116 -38 -125 -4
-12 -3 -15 4 -8 5 6 22 53 36 105 15 52 49 164 77 249 27 85 48 157 46 159 -3
2 -25 -59 -49 -135z"/>
<path d="M3081 2464 c-30 -8 -78 -30 -108 -48 l-54 -34 108 -6 c97 -5 293 -20
413 -31 25 -3 56 -7 70 -10 22 -6 21 -2 -15 32 -22 21 -58 49 -79 61 -85 50
-226 65 -335 36z m166 -20 c-3 -3 -12 -4 -19 -1 -8 3 -5 6 6 6 11 1 17 -2 13
-5z"/>
<path d="M2150 2340 c-232 -11 -443 -30 -454 -41 -20 -18 6 -21 121 -10 65 6
245 16 400 22 294 13 722 3 1024 -22 137 -12 200 -7 151 12 -77 30 -892 56
-1242 39z"/>
<path d="M1488 2279 c-144 -22 -180 -32 -176 -44 4 -13 16 -12 206 16 112 16
162 27 162 36 0 17 -47 15 -192 -8z"/>
<path d="M3420 2286 c0 -10 13 -17 43 -20 23 -3 107 -14 187 -25 138 -19 172
-19 153 -1 -9 9 -152 35 -248 44 -33 4 -77 9 -97 12 -30 5 -38 2 -38 -10z"/>
<path d="M1443 2046 c29 -40 58 -82 65 -92 7 -11 7 -7 -2 11 -15 32 -103 155
-111 155 -2 0 19 -33 48 -74z"/>
<path d="M3622 2003 c-26 -38 -34 -53 -29 -53 2 0 16 18 31 40 29 45 28 56 -2
13z"/>
<path d="M1057 2005 c-20 -8 -47 -21 -60 -31 -24 -17 -22 -17 37 10 21 10 64
18 95 18 42 1 50 3 31 8 -37 12 -60 10 -103 -5z"/>
<path d="M3968 2013 c7 -3 16 -2 19 1 4 3 -2 6 -13 5 -11 0 -14 -3 -6 -6z"/>
<path d="M3853 1963 c-21 -21 -28 -29 -14 -17 14 11 37 28 51 37 13 10 20 17
14 17 -7 0 -29 -17 -51 -37z"/>
<path d="M4060 1996 c0 -2 7 -7 16 -10 8 -3 12 -2 9 4 -6 10 -25 14 -25 6z"/>
<path d="M1250 1966 c0 -2 8 -10 18 -17 15 -13 16 -12 3 4 -13 16 -21 21 -21
13z"/>
<path d="M1098 1943 c12 -2 30 -2 40 0 9 3 -1 5 -23 4 -22 0 -30 -2 -17 -4z"/>
<path d="M3990 1941 c60 -9 114 -37 130 -66 7 -14 15 -23 17 -21 3 2 -3 16
-12 30 -23 34 -92 66 -141 65 l-39 -2 45 -6z"/>
<path d="M1010 1902 c-22 -22 -40 -45 -40 -53 1 -8 7 -2 16 13 8 15 31 39 52
53 20 14 31 25 25 25 -7 0 -30 -17 -53 -38z"/>
<path d="M1170 1933 c8 -3 24 -10 35 -15 20 -9 20 -9 1 6 -11 9 -27 16 -35 15
-14 0 -14 -1 -1 -6z"/>
<path d="M3570 1920 c-6 -11 -8 -20 -6 -20 3 0 10 9 16 20 6 11 8 20 6 20 -3
0 -10 -9 -16 -20z"/>
<path d="M3874 1896 c-29 -28 -44 -52 -43 -67 0 -20 3 -18 13 11 7 20 31 49
55 68 23 17 37 32 30 32 -6 0 -31 -20 -55 -44z"/>
<path d="M1230 1907 c0 -3 12 -25 26 -48 15 -26 22 -34 18 -19 -6 23 -44 80
-44 67z"/>
<path d="M3540 1870 c-6 -11 -8 -20 -6 -20 3 0 10 9 16 20 6 11 8 20 6 20 -3
0 -10 -9 -16 -20z"/>
<path d="M1318 1818 c5 -81 -24 -139 -90 -184 -82 -56 -164 -53 -234 8 -47 42
-64 78 -74 157 l-7 66 -2 -52 c-2 -100 48 -192 123 -226 42 -20 89 -30 82 -19
-3 5 21 13 54 16 40 5 58 11 54 18 -4 7 -3 8 4 4 7 -4 22 3 34 15 13 12 16 19
8 15 -8 -4 -5 1 6 11 12 10 25 28 29 41 3 12 10 22 14 22 7 0 9 9 12 85 2 28
-2 58 -7 68 -7 12 -9 -1 -6 -45z"/>
<path d="M2305 1839 c-318 -23 -585 -74 -651 -124 -35 -27 -64 -72 -64 -100 0
-13 101 -15 971 -15 l970 0 -7 23 c-13 43 -33 74 -58 90 -72 48 -331 96 -655
122 -205 16 -328 17 -506 4z m1149 -177 c129 -23 0 -27 -899 -29 -792 -1 -945
1 -945 12 0 9 16 15 48 18 88 7 1757 6 1796 -1z"/>
<path d="M3781 1809 c-2 -64 25 -138 64 -176 18 -18 35 -29 39 -26 3 4 6 1 6
-5 0 -17 79 -35 127 -28 24 3 62 18 85 33 24 15 46 26 50 25 5 -1 7 1 6 6 0 4
8 27 19 52 22 48 40 137 23 110 -5 -8 -10 -23 -10 -33 0 -26 -34 -88 -62 -113
-59 -54 -149 -71 -219 -41 -60 25 -108 100 -119 187 l-7 55 -2 -46z"/>
<path d="M4223 1790 c0 -36 2 -50 4 -32 2 17 2 47 0 65 -2 17 -4 3 -4 -33z"/>
<path d="M1598 1810 c9 -16 21 -30 25 -30 5 0 -1 14 -13 30 -27 39 -34 39 -12
0z"/>
<path d="M3514 1828 c-4 -7 -14 -24 -22 -38 -14 -24 -13 -24 3 -5 20 24 37 55
31 55 -3 0 -8 -6 -12 -12z"/>
<path d="M4141 1824 c0 -11 3 -14 6 -6 3 7 2 16 -1 19 -3 4 -6 -2 -5 -13z"/>
<path d="M874 1705 c0 -55 1 -76 3 -47 2 29 2 74 0 100 -2 26 -3 2 -3 -53z"/>
<path d="M4142 1760 c0 -19 2 -27 5 -17 2 9 2 25 0 35 -3 9 -5 1 -5 -18z"/>
<path d="M1271 1734 c0 -11 3 -14 6 -6 3 7 2 16 -1 19 -3 4 -6 -2 -5 -13z"/>
<path d="M4220 1621 c0 -44 -7 -114 -15 -157 -17 -89 -13 -112 5 -32 14 59 26
268 16 268 -3 0 -6 -36 -6 -79z"/>
<path d="M4060 1640 c-9 -6 -10 -10 -3 -10 6 0 15 5 18 10 8 12 4 12 -15 0z"/>
<path d="M1130 1630 l-45 -7 40 -1 c22 0 49 3 60 8 23 10 9 10 -55 0z"/>
<path d="M3920 1630 c8 -5 24 -10 34 -10 26 0 18 6 -19 14 -22 5 -26 4 -15 -4z"/>
<path d="M4003 1623 c9 -2 23 -2 30 0 6 3 -1 5 -18 5 -16 0 -22 -2 -12 -5z"/>
<path d="M881 1554 c1 -16 5 -40 9 -54 6 -17 7 -9 3 25 -6 56 -14 74 -12 29z"/>
<path d="M1585 1550 c-4 -6 -3 -14 0 -20 4 -7 340 -10 976 -10 966 0 969 0
969 20 0 20 -3 20 -970 20 -602 -1 -972 -5 -975 -10z"/>
<path d="M1590 1460 c0 -20 7 -20 964 -20 870 0 964 2 970 16 3 9 6 18 6 20 0
2 -436 4 -970 4 -963 0 -970 0 -970 -20z"/>
<path d="M901 1454 c0 -11 3 -14 6 -6 3 7 2 16 -1 19 -3 4 -6 -2 -5 -13z"/>
<path d="M911 1414 c0 -11 3 -14 6 -6 3 7 2 16 -1 19 -3 4 -6 -2 -5 -13z"/>
<path d="M1610 1393 c1 -28 40 -29 947 -32 928 -2 932 -2 943 19 l11 20 -951
0 c-522 0 -950 -3 -950 -7z"/>
<path d="M921 1380 c0 -8 4 -24 9 -35 5 -13 9 -14 9 -5 0 8 -4 24 -9 35 -5 13
-9 14 -9 5z"/>
<path d="M1020 1340 c-17 -32 5 -97 38 -114 33 -17 458 -23 432 -6 -12 8 -11
10 8 10 13 0 21 -4 18 -8 -3 -5 9 -6 27 -3 l32 5 -40 10 c-40 11 -41 12 -44
61 -1 27 -5 53 -7 57 -3 5 -106 8 -229 8 -214 0 -225 -1 -235 -20z m185 0 c-3
-5 -43 -10 -88 -10 -57 0 -77 3 -67 10 20 13 163 13 155 0z"/>
<path d="M3635 1352 c-27 -6 -32 -17 -30 -63 2 -36 0 -39 -24 -40 -24 -2 -24
-2 -3 -6 13 -3 26 -11 29 -19 4 -12 48 -14 262 -13 141 1 249 3 240 6 -14 3
-15 11 -6 47 5 24 7 55 3 70 l-7 27 -222 -3 c-122 -1 -231 -4 -242 -6z m435
-12 c0 -6 -35 -10 -85 -10 -50 0 -85 4 -85 10 0 6 35 10 85 10 50 0 85 -4 85
-10z"/>
<path d="M1563 1312 c10 -10 15 -22 12 -25 -3 -4 -2 -5 2 -2 3 3 13 -1 22 -7
9 -7 3 2 -13 20 -17 18 -32 32 -34 32 -3 0 2 -8 11 -18z"/>
<path d="M1650 1324 c0 -1 12 -10 26 -19 25 -16 91 -18 860 -22 841 -5 885 -3
912 30 8 9 -192 12 -894 12 -497 0 -904 -1 -904 -1z"/>
<path d="M946 1300 c3 -14 11 -32 16 -40 6 -10 7 -7 2 10 -3 14 -11 32 -16 40
-6 10 -7 7 -2 -10z"/>
<path d="M4146 1258 c-10 -21 -16 -42 -12 -45 7 -7 39 65 34 77 -2 4 -11 -10
-22 -32z"/>
<path d="M975 1230 c3 -5 8 -10 11 -10 2 0 4 5 4 10 0 6 -5 10 -11 10 -5 0 -7
-4 -4 -10z"/>
<path d="M3430 1225 c-32 -11 -25 -12 69 -13 111 -1 134 5 36 10 -33 1 -62 5
-65 9 -3 3 -21 1 -40 -6z"/>
<path d="M2098 1203 c12 -2 32 -2 45 0 12 2 2 4 -23 4 -25 0 -35 -2 -22 -4z"/>
<path d="M2518 1203 c23 -2 61 -2 85 0 23 2 4 4 -43 4 -47 0 -66 -2 -42 -4z"/>
<path d="M2738 1203 c12 -2 32 -2 45 0 12 2 2 4 -23 4 -25 0 -35 -2 -22 -4z"/>
</g>
</svg>
