<?xml version="1.0" standalone="no"?>
<!DOCTYPE svg PUBLIC "-//W3C//DTD SVG 20010904//EN"
 "http://www.w3.org/TR/2001/REC-SVG-20010904/DTD/svg10.dtd">
<svg version="1.0" xmlns="http://www.w3.org/2000/svg"
 width="121.000000pt" height="118.000000pt" viewBox="0 0 121.000000 118.000000"
 preserveAspectRatio="xMidYMid meet">
<metadata>
Created by potrace 1.10, written by Peter Selinger 2001-2011
</metadata>
<g transform="translate(0.000000,118.000000) scale(0.100000,-0.100000)"
fill="#000000" stroke="none">
<path d="M220 620 l0 -240 355 0 355 0 -2 238 -3 237 -352 3 -353 2 0 -240z
m660 206 c0 -2 -69 -71 -154 -153 l-154 -149 -155 153 -154 153 308 0 c170 0
309 -2 309 -4z m-538 -303 c-53 -51 -98 -93 -99 -93 -2 0 -3 87 -3 192 l0 193
100 -100 99 -99 -97 -93z m563 97 c0 -104 -2 -190 -5 -190 -3 0 -48 43 -100
95 l-95 95 95 95 c52 51 97 94 100 94 3 1 5 -84 5 -189z m-277 -78 l57 57 98
-96 c53 -53 97 -98 97 -99 0 -2 -141 -4 -312 -4 l-313 0 100 100 100 100 57
-57 58 -57 58 56z"/>
</g>
</svg>
