<?xml version="1.0" standalone="no"?>
<!DOCTYPE svg PUBLIC "-//W3C//DTD SVG 20010904//EN"
 "http://www.w3.org/TR/2001/REC-SVG-20010904/DTD/svg10.dtd">
<svg version="1.0" xmlns="http://www.w3.org/2000/svg"
 width="121.000000pt" height="118.000000pt" viewBox="0 0 121.000000 118.000000"
 preserveAspectRatio="xMidYMid meet">
<metadata>
Created by potrace 1.10, written by Peter Selinger 2001-2011
</metadata>
<g transform="translate(0.000000,118.000000) scale(0.100000,-0.100000)"
fill="#000000" stroke="none">
<path d="M610 960 c-17 -17 -20 -33 -20 -105 0 -79 2 -88 26 -112 20 -20 25
-32 20 -54 -8 -43 7 -42 49 1 l39 40 106 0 c69 0 110 4 118 12 8 8 12 47 12
108 0 133 4 130 -183 130 -134 0 -149 -2 -167 -20z m324 -26 c11 -29 6 -160
-6 -172 -8 -8 -48 -12 -112 -12 -95 0 -101 -1 -128 -27 l-28 -27 0 26 c0 18
-7 29 -20 33 -18 6 -20 15 -20 94 0 48 3 91 7 94 3 4 73 7 154 7 125 0 148 -2
153 -16z"/>
<path d="M644 876 c-15 -40 21 -80 54 -60 37 24 21 74 -25 74 -13 0 -26 -6
-29 -14z"/>
<path d="M744 876 c-15 -40 21 -80 54 -60 37 24 21 74 -25 74 -13 0 -26 -6
-29 -14z"/>
<path d="M844 876 c-15 -40 21 -80 54 -60 37 24 21 74 -25 74 -13 0 -26 -6
-29 -14z"/>
<path d="M307 821 c-52 -56 -62 -83 -53 -148 9 -67 60 -148 151 -239 126 -127
245 -182 330 -154 45 15 125 85 125 110 0 9 -34 47 -75 84 l-74 67 -39 -36
c-23 -20 -50 -35 -64 -35 -52 0 -158 104 -158 155 0 12 16 36 35 55 19 19 35
39 35 45 0 17 -134 145 -151 145 -9 0 -37 -22 -62 -49z m163 -116 l-20 -20
-62 62 c-61 62 -62 62 -43 83 l19 21 63 -63 63 -62 -20 -21z m-45 -74 c0 -79
120 -197 192 -189 29 4 41 -3 94 -55 72 -70 68 -82 -24 -82 -86 1 -149 37
-262 150 -129 129 -171 227 -133 310 l12 26 61 -61 c54 -53 60 -64 60 -99z
m387 -263 l-22 -22 -60 59 -60 59 22 23 22 24 60 -61 61 -60 -23 -22z"/>
</g>
</svg>
