<svg width="25" height="24" viewBox="0 0 25 24" fill="none" xmlns="http://www.w3.org/2000/svg">
<g clip-path="url(#clip0_1_710)">
<path d="M16.738 1.992H3.72998C3.16998 1.992 2.66198 2.124 2.20598 2.388C1.74998 2.652 1.38998 3.012 1.12598 3.468C0.86198 3.924 0.72998 4.432 0.72998 4.992V18C0.72998 18.56 0.86198 19.068 1.12598 19.524C1.38998 19.98 1.74998 20.34 2.20598 20.604C2.66198 20.868 3.16998 21 3.72998 21H16.738C17.298 21 17.806 20.868 18.262 20.604C18.718 20.34 19.078 19.98 19.342 19.524C19.606 19.068 19.738 18.56 19.738 18V4.992C19.738 4.432 19.606 3.924 19.342 3.468C19.078 3.012 18.718 2.652 18.262 2.388C17.806 2.124 17.298 1.992 16.738 1.992ZM18.73 18C18.73 18.544 18.534 19.012 18.142 19.404C17.75 19.796 17.282 19.992 16.738 19.992H3.72998C3.18598 19.992 2.71798 19.796 2.32598 19.404C1.93398 19.012 1.73798 18.544 1.73798 18V4.992C1.73798 4.448 1.93398 3.98 2.32598 3.588C2.71798 3.196 3.18598 3 3.72998 3H16.738C17.282 3 17.75 3.196 18.142 3.588C18.534 3.98 18.73 4.448 18.73 4.992V18ZM10.738 7.008H9.72998V10.992H5.74598V12H9.72998V16.008H10.738V12H14.746V10.992H10.738V7.008Z" fill="#2A81DD"/>
</g>
<defs>
<clipPath id="clip0_1_710">
<rect width="24" height="24" fill="white" transform="matrix(1 0 0 -1 0.72998 24)"/>
</clipPath>
</defs>
</svg>
